<?xml version="1.0" standalone="no"?>
<!DOCTYPE svg PUBLIC "-//W3C//DTD SVG 20010904//EN"
 "http://www.w3.org/TR/2001/REC-SVG-20010904/DTD/svg10.dtd">
<svg version="1.0" xmlns="http://www.w3.org/2000/svg"
 width="1000.000000pt" height="1000.000000pt" viewBox="0 0 1000.000000 1000.000000"
 preserveAspectRatio="xMidYMid meet">
<metadata>
Created by potrace 1.14, written by Peter Selinger 2001-2017
</metadata>
<g transform="translate(0.000000,1000.000000) scale(0.100000,-0.100000)"
fill="#000000" stroke="none">
<path d="M5042 7923 c-6 -10 -11 -22 -12 -28 -1 -5 -13 -35 -27 -65 -36 -81
-50 -110 -68 -155 -10 -22 -28 -62 -42 -90 -14 -27 -24 -51 -23 -53 0 -1 -7
-19 -16 -40 -9 -20 -25 -55 -34 -77 -10 -22 -34 -75 -54 -118 -20 -44 -36 -81
-36 -83 0 -2 -13 -33 -30 -68 -16 -36 -41 -93 -56 -128 -23 -55 -47 -108 -102
-228 -9 -19 -17 -37 -17 -40 0 -3 -8 -21 -17 -40 -9 -19 -63 -138 -119 -265
-56 -126 -109 -246 -117 -265 -9 -19 -16 -37 -17 -40 0 -3 -13 -31 -28 -64
-15 -32 -27 -60 -27 -62 0 -1 -17 -40 -38 -86 -33 -70 -66 -145 -147 -333 -7
-16 -27 -59 -43 -95 -41 -92 -81 -181 -104 -237 -7 -18 -16 -33 -19 -33 -3 0
-6 -6 -6 -12 -1 -13 -118 -282 -153 -350 -11 -21 -18 -38 -16 -38 3 0 -9 -26
-25 -57 -16 -32 -29 -61 -29 -65 0 -4 -13 -35 -29 -70 -32 -70 -59 -134 -61
-146 -1 -4 -8 -18 -16 -32 -14 -27 -33 -67 -139 -308 -37 -84 -73 -165 -81
-180 -8 -15 -14 -30 -14 -34 0 -4 -13 -36 -30 -70 -16 -34 -29 -63 -27 -65 2
-1 53 29 113 67 60 38 132 83 159 100 28 17 102 64 165 106 63 41 124 79 135
84 24 12 52 30 77 50 10 8 34 24 53 35 80 47 160 99 163 107 2 4 8 8 12 8 8 0
246 149 292 182 10 7 47 31 83 53 36 22 180 113 320 203 l255 163 32 -18 c18
-10 37 -22 43 -26 5 -4 63 -41 129 -82 65 -41 126 -81 136 -90 9 -8 20 -15 24
-15 4 0 34 -18 66 -40 32 -22 62 -40 65 -40 3 0 11 -5 18 -10 10 -10 59 -41
217 -140 22 -14 128 -81 236 -150 107 -69 206 -132 219 -140 13 -8 63 -40 110
-70 47 -30 93 -59 103 -65 10 -5 111 -70 224 -142 114 -73 209 -133 212 -133
4 0 2 8 -4 18 -5 9 -71 157 -146 327 -75 171 -149 338 -165 373 -16 35 -29 65
-29 68 0 2 -16 38 -35 80 -19 41 -35 77 -35 80 0 2 -20 47 -45 100 -25 52 -45
97 -45 100 0 4 -47 110 -107 244 -26 58 -94 210 -120 270 -8 19 -23 54 -34 78
-10 23 -28 61 -38 85 -11 23 -26 58 -34 77 -15 34 -40 91 -92 205 -14 31 -25
57 -25 60 0 2 -15 36 -34 77 -34 74 -68 149 -71 158 -4 11 -25 58 -51 115 -15
33 -28 62 -29 65 0 3 -13 31 -28 64 -15 32 -27 60 -27 62 0 2 -13 33 -30 69
-16 36 -30 70 -30 75 0 6 -5 10 -12 10 -6 0 -9 3 -6 6 4 3 -7 35 -24 72 -17
37 -38 85 -48 107 -10 22 -27 60 -38 85 -11 25 -46 104 -77 175 -31 72 -67
153 -80 180 -12 28 -82 185 -155 350 -73 165 -134 302 -136 303 -1 2 -7 -5
-12 -15z"/>
<path d="M395 6681 c-11 -5 -23 -7 -27 -4 -5 2 -8 -1 -8 -6 0 -6 -6 -11 -13
-11 -20 0 -74 -60 -91 -100 -16 -40 -15 -121 3 -165 14 -35 75 -93 111 -107
34 -14 87 -17 128 -7 26 6 35 4 39 -9 3 -10 14 -36 24 -59 11 -23 19 -44 19
-47 0 -2 5 -17 12 -33 6 -15 12 -30 12 -33 3 -9 107 -274 121 -305 7 -16 16
-41 20 -55 4 -14 15 -43 25 -65 18 -42 44 -106 46 -115 1 -9 16 -44 30 -75 7
-16 34 -84 59 -150 80 -209 126 -329 135 -350 4 -11 15 -36 23 -55 8 -19 36
-91 62 -160 26 -69 56 -145 67 -169 11 -25 21 -52 23 -60 2 -9 14 -43 28 -76
14 -33 37 -89 50 -125 14 -36 51 -130 82 -210 31 -80 76 -194 100 -255 24 -60
64 -164 89 -230 26 -66 51 -129 56 -140 12 -28 170 -434 170 -439 0 -2 8 -21
17 -42 9 -22 17 -41 18 -44 1 -6 121 -315 135 -345 4 -11 27 -69 50 -130 23
-60 46 -119 51 -130 4 -11 18 -45 29 -75 11 -30 25 -64 29 -75 5 -11 28 -68
51 -127 l41 -106 2852 1 2851 2 69 180 c38 99 75 195 84 214 8 18 19 45 23 60
5 14 22 62 39 106 17 44 31 82 31 85 0 3 -1189 5 -2643 4 -1453 0 -2649 2
-2658 4 -9 2 -24 22 -33 45 -10 23 -27 62 -38 87 -11 25 -26 59 -33 75 -26 61
-118 271 -134 305 -9 19 -16 37 -16 40 -1 3 -13 31 -28 62 -14 32 -29 69 -33
82 -3 14 -12 30 -20 37 -8 6 -14 18 -14 25 0 8 -13 41 -29 73 -16 33 -26 62
-23 65 3 4 1 6 -5 6 -5 0 -10 6 -10 13 0 6 -14 41 -31 77 -16 36 -40 88 -51
115 -12 28 -26 59 -31 70 -47 106 -76 172 -165 375 -109 250 -136 311 -165
375 -17 38 -142 322 -180 411 l-18 42 71 -40 c40 -22 84 -45 100 -51 15 -6 27
-15 27 -19 0 -4 6 -8 13 -8 7 0 33 -13 58 -28 24 -16 47 -29 52 -30 12 -2 139
-72 169 -93 15 -11 30 -19 33 -19 6 0 179 -93 310 -167 33 -19 76 -41 95 -51
19 -9 37 -19 40 -22 3 -3 23 -14 45 -26 22 -11 67 -36 100 -54 33 -18 91 -50
129 -71 l70 -37 32 66 c17 37 46 99 64 137 102 218 125 267 157 333 19 40 33
75 32 77 -6 4 -79 44 -193 105 -55 29 -114 60 -132 70 -17 10 -61 33 -95 51
-35 18 -81 43 -101 56 -21 13 -38 20 -38 17 0 -4 -8 -1 -17 7 -10 8 -36 24
-58 36 -81 42 -201 106 -250 133 -27 15 -95 51 -150 80 -88 47 -290 155 -337
180 -9 5 -81 44 -160 86 -261 139 -323 172 -368 197 -25 14 -79 43 -120 65
-41 22 -104 55 -140 74 -36 19 -101 54 -145 78 -44 23 -102 55 -130 70 -27 15
-99 53 -160 85 -149 79 -149 79 -157 89 -3 5 -3 19 2 30 12 33 3 101 -19 145
-22 42 -77 91 -104 91 -9 0 -19 5 -22 10 -7 12 -81 12 -110 1z"/>
<path d="M9561 6677 c-42 -13 -104 -72 -121 -115 -16 -40 -20 -108 -8 -141 7
-18 4 -28 -10 -40 -10 -9 -23 -17 -29 -18 -6 -1 -34 -16 -62 -32 -28 -17 -51
-27 -51 -23 0 4 -4 2 -8 -4 -7 -12 -107 -65 -118 -63 -4 0 -10 -3 -13 -8 -3
-5 -39 -26 -80 -47 -41 -21 -88 -46 -105 -55 -17 -9 -34 -20 -38 -26 -4 -5 -8
-6 -8 -1 0 5 -6 4 -12 -2 -7 -5 -44 -26 -83 -47 -38 -21 -92 -50 -120 -65 -27
-15 -88 -48 -135 -72 -88 -47 -174 -93 -282 -152 -35 -18 -106 -56 -158 -83
-52 -28 -126 -68 -165 -89 -38 -20 -99 -53 -135 -72 -36 -19 -105 -56 -155
-83 -49 -27 -130 -70 -180 -95 -49 -26 -92 -49 -95 -53 -3 -3 -48 -28 -100
-54 -52 -27 -122 -63 -155 -81 -33 -18 -130 -70 -215 -115 -85 -46 -159 -86
-163 -91 -5 -4 10 -46 32 -94 23 -47 41 -88 41 -90 0 -2 21 -48 47 -102 26
-54 47 -101 48 -104 1 -4 33 -73 92 -197 17 -38 -2 -44 179 58 67 38 127 69
132 69 6 0 12 3 14 8 2 4 28 20 58 36 30 16 78 41 105 56 28 15 113 62 190
104 77 42 147 80 155 85 8 6 40 23 70 39 121 64 356 195 368 205 11 8 12 5 6
-19 -4 -16 -10 -36 -14 -44 -5 -8 -33 -78 -64 -155 -31 -77 -60 -149 -65 -160
-16 -37 -74 -180 -91 -225 -20 -50 -176 -436 -201 -495 -5 -11 -18 -45 -29
-75 -11 -30 -25 -64 -30 -75 -13 -29 -44 -103 -66 -156 l-18 -46 -2488 0
c-1369 0 -2491 -3 -2494 -6 -4 -3 64 -148 150 -321 139 -281 180 -349 199
-330 5 5 152 8 172 4 6 -1 15 -1 20 0 12 2 128 2 141 -1 5 -1 14 0 19 1 12 2
128 2 141 -1 5 -1 14 0 19 1 12 2 128 2 141 -1 5 -1 14 -1 19 0 6 1 66 1 135
1 69 -1 132 -1 140 -1 51 1 250 1 257 0 4 -1 13 -1 18 0 6 1 51 2 100 1 50 -1
97 -1 105 -1 48 1 250 1 257 0 4 -1 13 -1 18 0 6 1 51 2 100 1 50 -1 97 -1
105 -1 8 0 80 0 160 0 80 0 152 0 160 0 56 1 250 1 257 0 4 -1 13 -1 18 0 6 1
51 2 100 1 50 -1 97 -1 105 -1 48 1 250 1 257 0 4 -1 13 -1 18 0 6 1 51 2 100
1 50 -1 97 -1 105 -1 80 2 177 2 185 1 6 -1 15 -1 20 0 12 2 128 2 141 -1 5
-1 14 0 19 1 12 2 128 2 141 -1 5 -1 14 0 19 1 12 2 128 2 141 -1 5 -1 14 -1
19 0 6 1 66 1 135 1 69 -1 132 -1 140 -1 51 1 250 1 257 0 4 -1 13 -1 18 0 6
1 51 2 100 1 50 -1 97 -1 105 -1 48 1 250 1 257 0 4 -1 13 -1 18 0 6 1 51 2
100 1 50 -1 95 -1 100 -1 97 5 100 6 104 26 2 11 27 81 56 155 29 74 91 234
138 355 47 121 128 331 180 466 81 208 155 401 195 509 5 14 10 27 10 30 0 3
14 35 31 73 17 37 28 67 26 67 -2 0 7 24 20 54 13 30 21 57 18 60 -4 3 -1 6 5
6 7 0 12 5 12 12 0 11 69 197 90 243 5 11 28 70 50 130 22 61 45 120 50 133
19 43 29 67 46 117 10 28 24 61 31 75 7 14 13 33 13 42 0 9 4 19 9 23 5 3 13
20 17 37 3 18 10 39 15 48 5 8 29 69 55 135 86 228 95 250 104 270 4 11 32 82
61 157 l53 137 48 -4 c65 -5 142 34 182 93 27 37 30 51 30 116 1 70 -1 75 -37
120 -21 25 -53 54 -70 63 -38 19 -119 24 -166 10z"/>
</g>
</svg>
