<?xml version="1.0" standalone="no"?>
<!DOCTYPE svg PUBLIC "-//W3C//DTD SVG 20010904//EN"
 "http://www.w3.org/TR/2001/REC-SVG-20010904/DTD/svg10.dtd">
<svg version="1.0" xmlns="http://www.w3.org/2000/svg"
 width="1673.000000pt" height="1673.000000pt" viewBox="0 0 1673.000000 1673.000000"
 preserveAspectRatio="xMidYMid meet">
<metadata>
Created by potrace 1.14, written by Peter Selinger 2001-2017
</metadata>
<g transform="translate(0.000000,1673.000000) scale(0.100000,-0.100000)"
fill="#000000" stroke="none">
<path d="M0 8365 l0 -8365 8365 0 8365 0 0 8365 0 8365 -8365 0 -8365 0 0
-8365z m7140 6505 c0 -5 -19 -9 -42 -9 l-43 2 35 7 c19 4 38 8 43 9 4 0 7 -3
7 -9z m95 0 c3 -6 -5 -10 -19 -10 -13 0 -31 -3 -40 -6 -9 -3 -16 -1 -16 6 0 6
3 9 8 7 4 -3 16 -1 27 4 27 11 33 11 40 -1z m153 -6 c12 -4 22 -11 22 -16 0
-5 -5 -6 -11 -3 -6 4 -26 7 -45 7 -19 0 -37 4 -40 9 -6 10 39 12 74 3z m695
-19 c11 -7 26 -11 35 -8 10 4 13 2 8 -5 -4 -6 -18 -11 -31 -10 -13 1 -22 4
-20 7 3 2 -3 10 -13 17 -9 7 -12 13 -7 13 6 0 18 -6 28 -14z m-630 -1 c-7 -3
-9 -12 -6 -20 3 -9 -1 -14 -11 -14 -14 0 -15 4 -6 20 6 11 16 20 23 19 9 0 9
-2 0 -5z m427 -19 c-7 -8 -20 -15 -30 -15 -10 0 -24 -10 -33 -22 -19 -30 -30
-20 -14 12 8 17 24 27 47 31 19 4 37 7 39 8 2 0 -2 -6 -9 -14z m157 9 c-3 -3
-12 -4 -19 -1 -8 3 -5 6 6 6 11 1 17 -2 13 -5z m143 -16 c0 -11 -28 -10 -35 1
-3 6 4 9 15 8 11 -1 20 -5 20 -9z m-773 -4 c-3 -3 -12 -4 -19 -1 -8 3 -5 6 6
6 11 1 17 -2 13 -5z m-407 -9 c0 -2 -10 -10 -22 -16 -21 -11 -22 -11 -9 4 13
16 31 23 31 12z m288 -2 c-10 -2 -18 -9 -18 -14 0 -5 -10 -9 -22 -9 -22 1 -23
1 -4 15 11 8 29 14 40 14 17 -1 18 -2 4 -6z m62 -3 c0 -5 -5 -10 -11 -10 -5 0
-7 5 -4 10 3 6 8 10 11 10 2 0 4 -4 4 -10z m1385 -9 c-3 -6 1 -16 8 -23 12
-11 10 -16 -15 -34 -16 -12 -25 -24 -21 -26 4 -3 2 -3 -5 -1 -7 1 -21 -1 -30
-6 -22 -11 -139 -21 -119 -9 9 4 28 10 44 11 15 2 36 7 46 11 28 13 77 59 77
73 0 7 5 13 11 13 5 0 8 -4 4 -9z m-1265 -26 c-7 -8 -16 -15 -21 -15 -5 0 -1
8 9 18 20 22 31 19 12 -3z m108 16 c11 -7 10 -9 -3 -14 -9 -4 -13 -3 -10 3 3
6 1 10 -5 10 -6 0 -13 -7 -16 -15 -4 -8 -18 -15 -33 -14 -24 0 -25 1 -5 9 12
5 25 13 29 19 7 13 25 14 43 2z m193 -14 c-10 -9 -11 -8 -5 6 3 10 9 15 12 12
3 -3 0 -11 -7 -18z m539 4 c22 -10 21 -11 -15 -5 -83 13 -177 12 -223 -2 -57
-17 -85 -19 -62 -4 8 5 26 10 40 10 19 0 21 3 11 9 -21 14 219 6 249 -8z m250
-1 c8 -16 17 -19 33 -14 20 5 20 5 7 -9 -8 -9 -28 -18 -44 -21 -27 -5 -27 -4
-12 13 19 21 8 36 -34 44 -21 4 -20 4 7 6 23 1 35 -5 43 -19z m110 5 c-14 -8
-29 -14 -35 -14 -5 0 1 6 15 14 14 8 30 14 35 14 6 0 -1 -6 -15 -14z m-1090
-40 c-7 -8 -20 -14 -29 -14 -13 1 -13 2 2 6 9 2 17 9 17 14 0 5 5 9 11 9 8 0
8 -5 -1 -15z m286 0 c-11 -8 -29 -15 -40 -15 -20 0 -20 0 0 15 10 8 28 14 39
14 20 0 20 0 1 -14z m649 6 c3 -6 -5 -15 -17 -21 -21 -10 -21 -10 -6 3 10 8
15 17 11 20 -3 4 -4 7 0 7 3 0 8 -4 12 -9z m-1083 -11 c4 -12 43 -14 78 -5 19
5 18 3 -6 -8 -50 -24 -77 -31 -70 -18 4 6 3 11 -2 11 -6 0 -12 7 -16 15 -3 8
-1 15 3 15 5 0 11 -4 13 -10z m354 -2 c4 -6 3 -8 -4 -4 -5 3 -12 2 -14 -4 -2
-6 -19 -13 -38 -16 -43 -7 -183 -13 -155 -7 11 3 24 8 28 13 5 4 22 3 38 -4
22 -8 32 -8 37 0 4 6 25 16 47 22 54 14 53 14 61 0z m624 -8 c-8 -6 -23 -10
-32 -10 -9 0 -25 -3 -35 -7 -15 -6 -13 -9 12 -14 l30 -7 -33 -1 c-55 -2 -36
24 33 46 34 11 47 7 25 -7z m645 -12 c27 -6 72 -22 100 -35 53 -25 49 -25 -60
12 -46 15 -100 25 -157 27 -49 2 -88 7 -88 11 0 10 136 0 205 -15z m-251 3 c9
-14 -22 -22 -52 -14 l-27 7 30 7 c44 10 43 10 49 0z m-2041 -31 c-29 -17 -56
-30 -60 -30 -12 0 90 60 102 60 6 0 -13 -14 -42 -30z m1356 25 c-3 -2 -25 -15
-50 -28 -73 -39 -94 -52 -100 -60 -4 -5 -17 -7 -30 -5 -19 2 -3 14 70 51 83
41 125 58 110 42z m176 -25 c3 -6 -1 -7 -9 -4 -18 7 -21 14 -7 14 6 0 13 -4
16 -10z m743 2 c12 -1 22 -6 22 -11 0 -5 -40 -8 -89 -7 -50 0 -87 4 -83 8 14
13 61 16 150 10z m-1541 -8 c-3 -3 -12 -4 -19 -1 -8 3 -5 6 6 6 11 1 17 -2 13
-5z m1020 0 c-3 -3 -12 -4 -19 -1 -8 3 -5 6 6 6 11 1 17 -2 13 -5z m-311 -20
c-23 -13 -26 -18 -15 -26 11 -8 10 -9 -3 -4 -10 3 -18 1 -18 -5 0 -6 -6 -9
-14 -6 -8 3 -43 -8 -78 -26 -34 -17 -71 -30 -82 -28 -11 2 -16 -2 -12 -8 4 -6
0 -11 -10 -11 -13 0 -14 3 -4 15 7 8 16 15 21 15 7 0 84 33 194 85 41 19 57
18 21 -1z m-612 -23 c-2 -3 -12 3 -22 13 -16 17 -16 18 5 5 12 -7 20 -15 17
-18z m714 9 c-7 -11 -17 -20 -22 -20 -5 0 -1 9 9 20 10 11 20 20 22 20 2 0 -2
-9 -9 -20z m72 10 c0 -5 -9 -10 -21 -10 -11 0 -17 5 -14 10 3 6 13 10 21 10 8
0 14 -4 14 -10z m-570 -5 c0 -2 -20 -13 -44 -24 -24 -10 -50 -29 -56 -41 -6
-12 -14 -19 -17 -16 -3 3 0 12 7 21 10 12 10 15 -1 15 -9 1 -8 5 5 15 11 8 16
16 10 16 -13 2 47 16 74 18 12 0 22 -1 22 -4z m-263 -21 c-3 -3 -12 -4 -19 -1
-8 3 -5 6 6 6 11 1 17 -2 13 -5z m405 -55 c-12 -11 -20 -24 -18 -28 3 -4 -5
-8 -17 -8 -12 -1 -50 -6 -84 -10 -34 -5 -60 -6 -57 -1 3 4 15 8 27 8 41 1 122
28 119 40 -1 6 2 9 7 6 5 -4 12 -2 16 4 3 5 11 10 17 10 7 0 2 -9 -10 -21z
m259 0 c-18 -11 -35 -18 -38 -15 -5 5 46 35 62 36 6 0 -5 -9 -24 -21z m-476
-59 c-27 -12 -43 -12 -25 0 8 5 22 9 30 9 10 0 8 -3 -5 -9z m-58 -16 c-3 -3
-12 -4 -19 -1 -8 3 -5 6 6 6 11 1 17 -2 13 -5z m-107 -34 c-46 -38 -65 -38
-22 0 18 17 38 30 45 30 6 0 -4 -14 -23 -30z m1615 -9 c-8 -17 -20 -33 -26
-37 -11 -7 5 29 24 54 17 21 18 13 2 -17z m-3284 -22 c-18 -6 -52 -22 -75 -36
-22 -14 -34 -18 -26 -10 23 23 92 57 115 56 12 0 7 -4 -14 -10z m159 -6 c-14
-10 -28 -18 -32 -19 -5 -1 -9 -2 -10 -4 -4 -2 -24 -7 -68 -14 -53 -10 -91 -27
-83 -39 3 -5 2 -7 -4 -4 -11 7 -116 -57 -108 -65 3 -3 -3 -11 -12 -19 -16 -12
-17 -12 -6 2 7 9 10 18 7 21 -8 9 144 107 174 113 15 3 52 14 82 25 70 24 92
25 60 3z m90 7 c-8 -5 -22 -10 -30 -10 -13 0 -13 1 0 10 8 5 22 10 30 10 13 0
13 -1 0 -10z m2550 -5 c-7 -8 -18 -15 -24 -15 -6 0 -2 7 8 15 25 19 32 19 16
0z m-2605 -15 c3 -6 -4 -10 -17 -10 -18 0 -20 2 -8 10 19 12 18 12 25 0z
m3462 -16 c-3 -3 -12 -4 -19 -1 -8 3 -5 6 6 6 11 1 17 -2 13 -5z m248 -4 c3
-6 -1 -7 -9 -4 -18 7 -21 14 -7 14 6 0 13 -4 16 -10z m-3675 -4 c0 -3 -4 -8
-10 -11 -5 -3 -10 -1 -10 4 0 6 5 11 10 11 6 0 10 -2 10 -4z m2515 -6 c-3 -5
-11 -10 -16 -10 -6 0 -7 5 -4 10 3 6 11 10 16 10 6 0 7 -4 4 -10z m874 6 c-2
-2 -39 -11 -82 -19 -45 -8 -75 -11 -69 -5 5 5 34 13 63 18 67 9 94 11 88 6z
m-819 -26 c-6 -11 -13 -20 -16 -20 -3 0 -2 5 1 10 3 6 1 10 -5 10 -6 0 -8 5
-5 10 3 6 13 10 21 10 12 0 12 -4 4 -20z m-2920 6 c0 -2 -8 -10 -17 -17 -16
-13 -17 -12 -4 4 13 16 21 21 21 13z m3211 -17 c-19 -24 -38 -25 -20 -2 12 15
12 16 -3 10 -10 -3 -18 -2 -18 3 0 5 13 8 29 8 27 -1 27 -2 12 -19z m59 1 c11
-7 6 -10 -20 -10 -26 0 -31 3 -20 10 8 5 17 10 20 10 3 0 12 -5 20 -10z m248
-1 c28 -1 31 -3 12 -6 -14 -3 -28 -10 -32 -17 -6 -8 -8 -8 -8 0 0 9 -12 9 -42
2 -23 -5 -58 -6 -78 -3 -40 7 -128 -21 -192 -62 -21 -13 -38 -19 -38 -14 0 4
33 25 73 45 56 29 90 39 149 45 43 4 81 10 85 14 4 4 13 5 21 2 7 -3 30 -6 50
-6z m537 0 c-3 -4 3 -12 12 -18 10 -5 16 -12 13 -14 -3 -3 -20 5 -38 18 -32
22 -32 23 -8 23 14 0 23 -4 21 -9z m-1175 -9 c-8 -5 -19 -10 -25 -10 -5 0 -3
5 5 10 8 5 20 10 25 10 6 0 3 -5 -5 -10z m50 -22 c0 -3 -9 -6 -20 -5 -11 1
-20 5 -20 9 0 3 9 6 20 5 11 -1 20 -5 20 -9z m-2990 -2 c0 -2 -8 -10 -17 -17
-16 -13 -17 -12 -4 4 13 16 21 21 21 13z m4033 -13 c-7 -2 -21 -2 -30 0 -10 3
-4 5 12 5 17 0 24 -2 18 -5z m-1065 -12 c11 -7 10 -9 -3 -14 -10 -4 -14 -3 -9
4 4 8 -3 9 -26 4 -23 -5 -30 -4 -26 4 8 13 45 14 64 2z m919 3 c-3 -4 -26 -9
-49 -11 -24 -3 -51 -12 -60 -21 -10 -8 -18 -12 -18 -7 0 21 46 45 88 45 25 0
43 -3 39 -6z m-1307 -19 c-7 -8 -17 -15 -23 -15 -6 0 -2 7 9 15 25 19 30 19
14 0z m-2640 -8 c0 -2 -10 -12 -22 -23 l-23 -19 19 23 c18 21 26 27 26 19z
m2755 -7 c-3 -5 -16 -10 -28 -9 -21 0 -21 1 -2 9 28 12 37 12 30 0z m175 -45
c-24 -25 -51 -45 -60 -45 -8 1 -3 7 13 16 15 8 27 20 27 27 0 10 45 46 60 47
2 0 -16 -20 -40 -45z m1035 35 c3 -5 2 -10 -4 -10 -5 0 -13 5 -16 10 -3 6 -2
10 4 10 5 0 13 -4 16 -10z m113 -72 c63 -62 74 -68 111 -68 24 0 41 5 41 12 0
6 8 4 19 -6 11 -10 28 -15 38 -12 10 3 25 1 33 -4 11 -7 7 -10 -17 -10 -18 0
-33 -3 -33 -6 0 -19 37 -64 52 -64 17 0 17 2 2 25 -29 44 -9 27 26 -22 23 -33
27 -42 12 -29 -17 15 -25 17 -34 8 -9 -9 -20 0 -44 37 -30 45 -37 50 -83 56
-27 4 -59 4 -70 0 -27 -8 -45 3 -32 19 18 22 -33 61 -75 57 -24 -2 -34 1 -32
10 2 7 -15 18 -37 25 l-40 12 34 1 c18 1 50 -9 70 -21 l36 -21 -35 38 c-57 61
-17 36 58 -37z m-688 57 c0 -8 -52 -26 -58 -20 -3 2 6 9 19 14 28 11 39 13 39
6z m-2863 -22 c-9 -9 -20 -13 -24 -9 -4 4 -1 11 7 16 25 16 35 11 17 -7z
m3820 11 c-3 -3 -12 -4 -19 -1 -8 3 -5 6 6 6 11 1 17 -2 13 -5z m-1297 -8 c0
-3 -4 -8 -10 -11 -5 -3 -10 -1 -10 4 0 6 5 11 10 11 6 0 10 -2 10 -4z m369 0
c-15 -13 -102 -56 -114 -56 -33 0 -12 19 43 38 55 19 80 26 71 18z m998 -13
c10 -10 14 -15 8 -12 -5 4 -23 11 -40 17 -24 8 -26 11 -9 11 12 1 30 -7 41
-16z m-917 -3 c-8 -5 -22 -10 -30 -10 -13 0 -13 1 0 10 8 5 22 10 30 10 13 0
13 -1 0 -10z m457 -16 c-3 -3 -12 -4 -19 -1 -8 3 -5 6 6 6 11 1 17 -2 13 -5z
m560 -39 c52 -49 46 -62 -9 -18 -35 30 -48 44 -48 56 0 13 7 8 57 -38z m-1857
25 c-8 -5 -26 -9 -40 -9 -23 1 -23 2 5 9 43 11 52 11 35 0z m80 6 c0 -2 -11
-6 -25 -8 -13 -3 -22 -1 -19 3 5 9 44 13 44 5z m-2150 -10 c0 -6 -117 -96
-124 -96 -4 0 19 23 49 50 48 44 75 60 75 46z m2885 -6 c-3 -5 -12 -10 -18
-10 -7 0 -6 4 3 10 19 12 23 12 15 0z m120 -17 c-81 -23 -104 -26 -63 -7 21 9
36 19 34 23 -2 3 14 5 37 2 l42 -4 -50 -14z m-195 -2 c0 -5 -9 -11 -20 -14
-13 -3 -20 0 -20 9 0 8 9 14 20 14 11 0 20 -4 20 -9z m80 -31 c-8 -6 -21 -8
-27 -5 -7 2 -13 0 -13 -6 0 -10 -35 -26 -78 -34 l-27 -5 28 13 c15 7 25 16 22
19 -3 2 13 12 35 21 22 8 37 11 34 5 -4 -6 -1 -8 7 -6 8 3 13 12 11 19 -3 11
-1 12 10 1 11 -11 10 -14 -2 -22z m-520 16 c0 -2 -8 -10 -17 -17 -16 -13 -17
-12 -4 4 13 16 21 21 21 13z m1110 -105 c-12 -34 -24 -61 -26 -61 -7 0 8 54
18 67 6 7 8 29 6 48 -3 31 -2 33 10 21 13 -13 12 -22 -8 -75z m-1360 69 c0 -5
-7 -10 -16 -10 -8 0 -12 5 -9 10 3 6 10 10 16 10 5 0 9 -4 9 -10z m210 0 c0
-5 -5 -10 -11 -10 -5 0 -7 5 -4 10 3 6 8 10 11 10 2 0 4 -4 4 -10z m1280 -56
c28 -31 4 -17 -40 25 -19 17 -20 21 -5 13 11 -6 31 -23 45 -38z m404 -39 c11
-21 12 -33 4 -42 -6 -8 -8 -16 -5 -19 3 -4 -1 -13 -9 -21 -21 -21 -26 -12 -12
23 9 25 7 37 -13 79 -12 28 -25 55 -27 60 -8 21 48 -51 62 -80z m26 22 c0 -6
-11 4 -25 23 -14 19 -25 36 -25 39 1 11 50 -50 50 -62z m-4250 28 c-7 -9 -15
-13 -18 -10 -3 2 1 11 8 20 7 9 15 13 18 10 3 -2 -1 -11 -8 -20z m3288 14 c-2
-5 -19 -20 -38 -31 l-35 -22 30 31 c31 31 49 41 43 22z m748 -17 c-4 -3 -14 2
-24 12 -16 18 -16 18 6 6 13 -6 21 -14 18 -18z m-996 14 c0 -2 -7 -7 -16 -10
-8 -3 -12 -2 -9 4 6 10 25 14 25 6z m494 -33 c-38 -53 -145 -162 -169 -174
-12 -6 -8 1 10 18 17 15 37 37 45 47 17 22 9 19 -42 -16 -14 -10 -32 -18 -40
-18 -7 0 -24 -9 -38 -20 -14 -11 -32 -20 -41 -20 -8 0 -26 -11 -39 -25 -13
-14 -28 -25 -33 -25 -6 0 -1 10 11 23 25 27 27 34 10 40 -7 2 -5 3 5 2 9 -2
17 0 17 5 0 9 79 40 102 40 9 0 32 9 51 20 19 11 41 18 49 15 10 -4 24 4 37
21 24 31 26 41 9 47 -7 2 -5 3 4 2 9 -2 28 10 42 26 37 41 42 36 10 -8z
m-3304 20 c-1 -5 -12 -21 -26 -38 -27 -31 -28 -28 -5 18 13 25 31 37 31 20z
m2765 -13 c-3 -5 -15 -15 -26 -20 -15 -8 -19 -8 -17 2 2 7 10 16 18 20 22 10
32 9 25 -2z m220 0 c-3 -5 -14 -10 -23 -10 -9 -1 -33 -10 -52 -21 -28 -15 -30
-18 -10 -14 20 5 22 4 8 -5 -19 -12 -51 -3 -42 12 9 14 85 48 107 48 10 0 15
-4 12 -10z m-159 -9 c-7 -11 -56 -21 -56 -10 0 4 8 10 18 12 30 8 43 7 38 -2z
m988 -43 c8 -6 8 -8 -1 -8 -6 0 -19 -24 -28 -52 -10 -29 -29 -73 -43 -98 -15
-25 -25 -48 -24 -52 1 -5 -4 -8 -12 -8 -13 0 -26 -20 -26 -41 0 -16 52 -4 66
16 8 10 14 15 14 10 0 -5 5 -4 12 3 7 7 17 12 22 12 9 0 -83 -92 -133 -133
-12 -10 -12 -9 -3 9 16 29 22 74 11 74 -18 0 -8 26 26 69 40 50 38 46 24 72
-7 14 -14 17 -23 10 -7 -6 -17 -6 -26 -1 -12 8 -10 10 7 10 17 0 21 4 17 18
-4 9 5 4 18 -12 31 -36 45 -28 54 29 3 25 10 48 15 51 5 3 10 22 10 42 1 28 3
31 6 12 3 -14 10 -28 17 -32z m-607 26 c-3 -3 -12 -4 -19 -1 -8 3 -5 6 6 6 11
1 17 -2 13 -5z m223 1 c0 -2 -10 -9 -22 -15 -22 -11 -22 -10 -4 4 21 17 26 19
26 11z m630 -49 c0 -6 -7 -1 -15 10 -8 10 -15 23 -15 28 0 6 7 1 15 -10 8 -10
15 -23 15 -28z m-703 16 c-1 -10 -13 -29 -25 -42 -12 -13 -22 -28 -22 -34 0
-5 -3 -7 -6 -3 -5 5 45 97 53 97 2 0 2 -8 0 -18z m235 -2 c10 0 18 -5 18 -11
0 -6 -7 -9 -15 -5 -20 7 -19 -3 1 -25 12 -14 21 -16 35 -9 12 7 20 7 24 0 4
-6 1 -9 -7 -8 -7 2 -13 -6 -13 -19 0 -12 -4 -25 -8 -29 -4 -4 -7 -1 -7 6 0 7
-17 29 -37 48 -21 20 -31 32 -23 27 12 -6 13 -5 3 6 -17 18 -18 48 -1 31 7 -7
20 -12 30 -12z m-3581 -37 c-10 -21 -27 -47 -36 -58 -9 -11 -2 8 16 42 18 34
35 61 37 59 2 -2 -6 -21 -17 -43z m3037 18 c-13 -9 -27 -15 -31 -13 -4 1 -17
-2 -27 -8 -35 -18 -22 -1 18 24 42 26 78 24 40 -3z m22 -21 c-44 -29 -74 -40
-54 -20 14 14 76 49 89 49 6 1 -10 -13 -35 -29z m353 5 c-3 -9 -8 -14 -10 -11
-3 3 -2 9 2 15 9 16 15 13 8 -4z m37 -5 c0 -11 -2 -20 -4 -20 -2 0 -6 9 -9 20
-3 11 -1 20 4 20 5 0 9 -9 9 -20z m430 -8 c14 -6 32 -13 40 -16 8 -3 -5 -4
-29 -2 -34 2 -49 9 -60 26 -15 22 -14 22 4 13 11 -6 31 -15 45 -21z m-1114 0
c-5 -9 -75 -6 -84 3 -3 3 16 5 42 5 26 0 45 -4 42 -8z m1312 -28 c-4 -3 -12 5
-18 18 -12 22 -12 22 6 6 10 -10 15 -20 12 -24z m-243 6 c3 -5 -1 -10 -10 -10
-9 0 -13 5 -10 10 3 6 8 10 10 10 2 0 7 -4 10 -10z m-51 -47 c-8 -26 -19 -52
-25 -58 -8 -8 0 20 26 93 2 6 6 12 9 12 2 0 -2 -21 -10 -47z m263 15 c-3 -8
-6 -5 -6 6 -1 11 2 17 5 13 3 -3 4 -12 1 -19z m-835 -6 c-13 -9 -50 -39 -83
-65 -66 -53 -82 -50 -18 4 37 31 107 77 119 78 3 0 -5 -8 -18 -17z m798 -17
c0 -5 -5 -3 -10 5 -5 8 -10 20 -10 25 0 6 5 3 10 -5 5 -8 10 -19 10 -25z
m-1075 7 c-53 -42 -60 -46 -33 -19 16 15 31 27 35 27 4 0 3 -3 -2 -8z m1205
-45 c13 -7 24 -22 25 -34 2 -30 -3 -29 -15 3 -11 29 -30 24 -31 -9 0 -22 0
-22 -10 1 -5 13 -7 28 -3 33 3 5 0 9 -5 9 -6 0 -11 12 -11 28 l1 27 13 -23 c7
-13 23 -29 36 -35z m-905 27 c-11 -8 -19 -19 -18 -24 2 -5 -3 -7 -10 -5 -6 3
-25 -6 -41 -20 -35 -30 -40 -31 -24 -6 7 11 33 31 58 45 51 29 64 33 35 10z
m95 12 c0 -3 -4 -8 -10 -11 -5 -3 -10 -1 -10 4 0 6 5 11 10 11 6 0 10 -2 10
-4z m-3870 -26 c-6 -11 -13 -20 -16 -20 -2 0 0 9 6 20 6 11 13 20 16 20 2 0 0
-9 -6 -20z m3963 -14 c-10 -11 -20 -23 -22 -26 -2 -3 0 5 3 18 10 29 -1 28
-38 -5 -18 -17 -25 -20 -16 -8 33 46 41 52 66 47 24 -4 24 -5 7 -26z m514 -6
c-3 -23 -1 -40 6 -43 13 -4 2 -37 -13 -37 -7 0 -9 8 -5 19 11 35 -12 32 -41
-5 -69 -87 -73 -89 -24 -9 14 22 24 43 22 48 -1 4 4 6 10 5 7 -2 19 12 27 30
19 43 25 41 18 -8z m-4006 7 c-10 -9 -11 -8 -5 6 3 10 9 15 12 12 3 -3 0 -11
-7 -18z m3359 13 c-33 -23 -50 -30 -50 -23 0 5 10 13 23 19 28 15 47 17 27 4z
m730 -10 c0 -5 -5 -10 -11 -10 -5 0 -7 5 -4 10 3 6 8 10 11 10 2 0 4 -4 4 -10z
m-4261 -45 c-6 -22 -13 -55 -16 -72 -8 -48 -20 -31 -17 23 3 40 29 102 39 92
2 -2 -1 -21 -6 -43z m671 12 c0 -2 -12 -14 -27 -28 l-28 -24 24 28 c23 25 31
32 31 24z m2393 -29 c-60 -70 -126 -138 -134 -138 -4 0 2 11 14 24 12 13 47
51 77 85 56 62 93 87 43 29z m495 18 c9 -10 -2 -15 -40 -20 -31 -4 -36 -2 -31
12 6 16 5 16 -13 1 -30 -25 -44 -31 -44 -20 0 6 7 11 15 11 8 0 15 4 15 9 0 5
-10 7 -22 3 -13 -3 -19 -1 -15 5 7 11 124 9 135 -1z m509 -4 c-10 -10 -17 -25
-18 -33 0 -9 -2 -10 -5 -2 -7 15 13 53 28 53 6 0 4 -8 -5 -18z m33 -2 c0 -11
-4 -20 -9 -20 -5 0 -7 9 -4 20 3 11 7 20 9 20 2 0 4 -9 4 -20z m232 -45 c-4
-5 -9 1 -13 15 -12 42 -9 57 5 25 7 -16 11 -34 8 -40z m-688 46 c4 -5 -9 -19
-28 -30 -40 -25 -43 -25 -43 -6 0 8 3 12 7 10 4 -3 15 4 25 15 20 22 31 25 39
11z m-605 -5 c-2 -2 -17 -6 -34 -10 -22 -5 -26 -4 -15 4 14 9 59 15 49 6z
m256 -16 c-3 -5 -16 -15 -28 -21 -22 -12 -22 -12 -3 10 19 21 43 30 31 11z
m1155 -16 c0 -8 -4 -14 -10 -14 -5 0 -10 2 -10 4 0 2 -3 12 -6 20 -5 12 -2 15
10 10 9 -3 16 -12 16 -20z m-910 -5 c-7 -11 -14 -18 -17 -15 -3 3 0 12 7 21
18 21 23 19 10 -6z m682 -2 c-7 -8 -8 -17 -4 -21 4 -4 2 -6 -4 -4 -6 2 -22
-10 -37 -27 -14 -16 -27 -25 -27 -19 0 14 71 96 78 90 2 -3 0 -12 -6 -19z m69
-4 c-12 -20 -14 -14 -5 12 4 9 9 14 11 11 3 -2 0 -13 -6 -23z m102 -47 c1 -31
-1 -56 -5 -56 -3 0 -16 -20 -28 -44 -11 -24 -29 -50 -38 -58 -15 -12 -15 -11
1 12 30 44 39 74 39 127 -1 29 3 55 8 58 5 3 6 13 3 23 -4 13 -3 14 6 6 7 -6
13 -37 14 -68z m-3789 29 c-9 -14 -19 -23 -22 -20 -5 4 26 45 35 45 2 0 -4
-11 -13 -25z m1776 -5 c-19 -16 -39 -29 -44 -30 -5 0 8 14 29 30 49 39 60 39
15 0z m-1550 -10 c-14 -11 -29 -20 -33 -20 -5 0 -17 -10 -27 -22 -10 -13 -22
-20 -26 -15 -4 4 2 14 15 23 12 9 29 24 39 33 18 19 44 31 52 24 3 -2 -6 -13
-20 -23z m3430 12 c0 -10 -6 -26 -12 -35 -11 -15 -13 -14 -12 13 2 39 2 40 14
40 6 0 10 -8 10 -18z m-1340 -13 c-7 -11 -14 -18 -17 -15 -8 8 5 36 17 36 7 0
7 -6 0 -21z m283 6 c-3 -9 -8 -14 -10 -11 -3 3 -2 9 2 15 9 16 15 13 8 -4z
m352 5 c-3 -5 -12 -10 -18 -10 -7 0 -6 4 3 10 19 12 23 12 15 0z m87 -25 c-12
-14 -32 -35 -46 -46 -24 -19 -25 -19 -20 -2 7 19 76 85 82 78 3 -2 -5 -16 -16
-30z m491 -7 c-9 -20 -25 -39 -36 -42 -19 -5 -19 -4 1 17 11 12 25 33 32 45
18 37 21 20 3 -20z m172 3 c-21 -43 -29 -39 -8 4 9 19 18 33 21 31 2 -2 -4
-18 -13 -35z m-800 9 c-3 -5 -11 -10 -16 -10 -6 0 -7 5 -4 10 3 6 11 10 16 10
6 0 7 -4 4 -10z m205 0 c-8 -5 -19 -10 -25 -10 -5 0 -3 5 5 10 8 5 20 10 25
10 6 0 3 -5 -5 -10z m630 -29 c0 -27 -7 -46 -25 -65 -14 -15 -27 -35 -28 -44
-1 -9 -6 -23 -10 -29 -5 -7 -5 -17 -2 -23 6 -10 -87 -102 -133 -132 -27 -17
-149 -31 -134 -16 5 5 32 10 60 12 52 4 87 20 76 37 -3 5 -2 8 3 7 4 -2 18 5
31 14 44 31 2 30 -64 -1 -37 -17 -68 -31 -71 -31 -16 0 64 54 82 56 63 7 125
62 125 111 0 25 19 43 38 36 12 -5 14 -1 8 20 -4 19 -3 26 6 25 7 -2 17 12 22
30 6 17 11 32 13 32 2 0 3 -17 3 -39z m-3774 14 c-1 -8 -8 -21 -16 -28 -7 -6
-11 -7 -8 -2 3 6 8 18 11 28 8 21 16 23 13 2z m114 -20 c-13 -14 -26 -23 -28
-20 -3 3 5 16 18 30 13 14 26 23 28 20 3 -3 -5 -16 -18 -30z m3731 2 c-10 -9
-11 -8 -5 6 3 10 9 15 12 12 3 -3 0 -11 -7 -18z m-2105 -15 c-17 -16 -18 -16
-5 5 7 12 15 20 18 17 3 -2 -3 -12 -13 -22z m-2715 -15 c-8 -8 -11 -7 -11 4 0
20 13 34 18 19 3 -7 -1 -17 -7 -23z m4832 -13 c-44 -98 -143 -218 -143 -175 0
4 10 19 23 32 13 13 48 61 77 106 30 45 56 81 58 79 1 -2 -5 -21 -15 -42z
m-693 11 c-22 -24 -13 -42 15 -31 30 11 13 -10 -25 -31 -52 -30 -73 -29 -35 2
23 19 26 24 13 25 -21 0 -25 20 -4 20 8 0 16 7 20 15 7 20 2 19 -44 -10 -45
-28 -58 -32 -40 -10 7 8 9 15 4 16 -21 2 64 27 89 26 l28 0 -21 -22z m-3010 5
c0 -5 -5 -10 -11 -10 -5 0 -7 5 -4 10 3 6 8 10 11 10 2 0 4 -4 4 -10z m3290
-30 c6 0 21 5 33 11 17 9 15 5 -7 -15 -34 -33 -28 -44 11 -20 l28 17 -30 -26
c-30 -25 -49 -20 -37 11 4 11 0 14 -15 10 -16 -4 -19 -2 -16 13 8 31 -12 22
-46 -22 -18 -22 -36 -38 -39 -35 -3 4 16 27 43 53 46 45 48 46 56 25 5 -12 13
-22 19 -22z m264 25 c-6 -16 -44 -41 -44 -29 0 5 40 43 47 44 1 0 0 -7 -3 -15z
m-74 1 c0 -2 -17 -16 -37 -31 l-38 -28 29 31 c26 28 46 40 46 28z m290 -5 c0
-6 -4 -13 -10 -16 -5 -3 -10 1 -10 9 0 9 5 16 10 16 6 0 10 -4 10 -9z m-3680
-15 c0 -2 -8 -10 -17 -17 -16 -13 -17 -12 -4 4 13 16 21 21 21 13z m71 -36
c-21 -18 -51 -27 -51 -15 0 6 53 34 65 34 6 0 -1 -9 -14 -19z m2729 16 c0 -2
-7 -7 -16 -10 -8 -3 -12 -2 -9 4 6 10 25 14 25 6z m601 -10 c-14 -17 2 -31 22
-20 8 5 7 2 -2 -9 -12 -16 -15 -16 -25 -1 -11 14 -17 13 -61 -5 -28 -11 -45
-20 -40 -21 6 0 -1 -9 -15 -20 -27 -21 -45 -26 -35 -10 3 6 -1 7 -9 4 -9 -3
-14 -10 -11 -14 8 -12 -31 -33 -107 -57 -40 -12 -14 16 40 45 32 17 66 40 77
52 10 11 22 20 27 20 6 0 19 10 29 23 l20 22 -6 -23 -6 -22 53 24 c64 30 63
29 49 12z m248 -78 c-7 -24 -13 -46 -13 -50 -1 -10 -46 -41 -46 -32 0 4 9 17
20 29 11 12 26 45 33 74 6 29 13 46 15 38 2 -9 -2 -35 -9 -59z m-3489 58 c0
-2 -8 -10 -17 -17 -16 -13 -17 -12 -4 4 13 16 21 21 21 13z m2890 -26 c-25
-20 -109 -55 -145 -62 -11 -1 -26 -9 -33 -15 -7 -7 -21 -13 -30 -13 -12 0 -8
7 13 26 32 27 120 70 110 54 -10 -16 17 -11 55 10 46 25 62 25 30 0z m340 6
c0 -2 -8 -10 -17 -17 -16 -13 -17 -12 -4 4 13 16 21 21 21 13z m-530 -21 c0
-6 -32 -19 -70 -29 -14 -3 -7 3 15 13 42 21 55 24 55 16z m821 -22 c-8 -15
-10 -15 -11 -2 0 17 10 32 18 25 2 -3 -1 -13 -7 -23z m-3531 14 c0 -2 -15 -16
-32 -33 l-33 -29 29 33 c28 30 36 37 36 29z m3585 -6 c3 -5 1 -12 -5 -16 -5
-3 -10 1 -10 9 0 18 6 21 15 7z m-386 -14 c-2 -1 -13 -9 -24 -17 -19 -14 -19
-14 -6 3 7 9 18 17 24 17 6 0 8 -1 6 -3z m351 -71 c-6 -20 -15 -38 -20 -41 -5
-3 -3 10 5 29 8 19 12 43 8 53 -5 14 -3 15 7 6 9 -9 10 -19 0 -47z m-130 21
c0 -2 -10 -12 -22 -23 l-23 -19 19 23 c18 21 26 27 26 19z m106 -16 c-7 -11
-56 -21 -56 -10 0 9 19 17 43 18 10 1 16 -3 13 -8z m91 -23 c-3 -8 -6 -5 -6 6
-1 11 2 17 5 13 3 -3 4 -12 1 -19z m-157 -7 c0 -5 -7 -12 -16 -15 -14 -5 -15
-4 -4 9 14 17 20 19 20 6z m45 -40 c-1 -19 -13 -39 -37 -60 -20 -17 -40 -31
-44 -31 -5 0 6 12 24 26 17 14 32 29 32 34 0 12 19 60 23 60 2 0 3 -13 2 -29z
m-180 -1 c-14 -16 -20 -17 -27 -8 -5 8 -8 9 -8 2 0 -7 -9 -14 -20 -17 -17 -4
-18 -2 -9 15 7 13 17 18 30 15 10 -3 22 -1 25 4 3 5 10 9 16 9 6 0 3 -9 -7
-20z m95 -9 c-11 -21 -30 -37 -30 -25 0 8 30 44 37 44 2 0 -1 -9 -7 -19z m50
9 c0 -5 -5 -10 -11 -10 -5 0 -7 5 -4 10 3 6 8 10 11 10 2 0 4 -4 4 -10z m78
-7 c-8 -10 -18 -27 -22 -37 -3 -10 -9 -16 -12 -13 -8 8 25 67 38 67 7 0 5 -7
-4 -17z m142 -26 c-10 -9 -11 -9 -6 1 5 8 -1 12 -21 12 l-28 0 25 13 c21 11
26 11 34 -1 5 -8 3 -18 -4 -25z m-3620 9 c0 -2 -7 -7 -16 -10 -8 -3 -12 -2 -9
4 6 10 25 14 25 6z m3310 -6 c0 -5 -5 -10 -11 -10 -5 0 -7 5 -4 10 3 6 8 10
11 10 2 0 4 -4 4 -10z m90 5 c0 -7 -58 -35 -72 -35 -7 1 3 9 22 20 35 19 50
24 50 15z m147 -33 c-15 -10 -34 -27 -42 -38 -14 -18 -14 -17 -5 10 16 43 19
46 48 46 l27 0 -28 -18z m-257 -3 c13 -9 12 -10 -2 -5 -10 3 -18 2 -18 -2 0
-9 -52 -33 -58 -28 -9 9 10 26 29 26 10 0 19 5 19 10 0 13 11 12 30 -1z m319
8 c-2 -1 -12 -9 -22 -16 -15 -12 -17 -12 -11 3 3 9 13 16 22 16 8 0 13 -1 11
-3z m-192 -59 c-8 -13 -20 -22 -25 -21 -5 1 -34 -7 -63 -18 -30 -11 -74 -24
-99 -30 -25 -5 -54 -12 -65 -15 -13 -4 -16 -3 -10 3 6 6 37 18 70 27 33 10 74
24 92 32 17 8 43 15 58 16 15 2 30 8 32 15 3 7 10 13 15 13 6 0 4 -10 -5 -22z
m176 -52 c-10 -13 -27 -30 -38 -36 -11 -7 -5 3 13 22 17 19 32 40 33 48 0 10
2 11 6 3 2 -7 -4 -23 -14 -37z m-543 4 c11 -7 5 -8 -20 -4 -43 8 -51 14 -19
14 13 0 31 -5 39 -10z m425 0 c-3 -5 -12 -10 -19 -10 -7 0 -21 -9 -31 -20 -10
-11 -23 -20 -29 -20 -15 1 56 59 72 60 7 0 10 -4 7 -10z m-120 -40 c-15 -16
-44 -35 -64 -41 -20 -7 -56 -23 -80 -36 -51 -27 -70 -29 -97 -8 -18 15 -18 15
8 9 33 -7 181 46 224 81 40 33 43 31 9 -5z m-1835 -10 c0 -5 -5 -10 -11 -10
-5 0 -7 5 -4 10 3 6 8 10 11 10 2 0 4 -4 4 -10z m244 -1 c-2 -4 1 -11 7 -15 7
-4 9 -3 5 4 -11 18 14 25 45 12 30 -13 42 -34 12 -23 -11 4 -14 3 -9 -5 4 -7
16 -12 27 -12 22 0 24 -11 7 -28 -16 -16 -2 -15 25 2 12 8 38 15 57 15 84 2
122 8 128 17 4 6 18 10 32 9 14 -1 30 1 35 4 17 12 75 13 75 2 0 -14 47 -14
55 0 9 13 64 2 86 -17 8 -8 20 -14 25 -14 5 0 2 5 -6 10 -13 9 -13 11 0 19 9
7 17 6 21 -1 4 -6 14 -8 22 -5 11 4 14 1 10 -9 -3 -9 2 -14 16 -14 12 0 21 -5
21 -12 0 -6 3 -8 7 -5 9 10 44 -24 36 -36 -4 -6 -1 -7 6 -2 8 4 24 -5 42 -26
69 -80 89 -119 128 -251 21 -73 50 -160 63 -193 14 -33 32 -80 42 -105 9 -25
32 -63 51 -85 19 -21 32 -41 28 -45 -3 -3 -8 1 -10 8 -3 6 -13 12 -24 12 -12
0 -17 -5 -12 -16 5 -13 -2 -14 -46 -8 -38 5 -51 3 -51 -6 0 -7 -8 -10 -20 -7
-11 3 -18 2 -15 -2 2 -5 -29 -6 -70 -3 -49 3 -75 1 -75 -6 0 -6 -9 -14 -20
-17 -36 -12 -165 -150 -178 -191 -8 -28 -8 -40 0 -45 6 -4 1 -13 -16 -24 -26
-18 -36 -58 -16 -70 6 -4 8 -11 4 -16 -3 -6 3 -5 15 2 11 8 16 16 11 19 -10 6
102 60 124 60 7 0 16 4 22 9 19 18 154 60 210 65 154 15 182 15 194 1 12 -15
11 -26 -11 -121 -11 -45 -10 -58 5 -99 20 -51 17 -62 -11 -47 -10 5 -24 7 -32
4 -9 -3 -12 0 -8 10 6 17 -67 55 -118 61 -75 9 -247 -51 -325 -112 -34 -27
-18 -38 18 -12 16 11 50 29 75 40 l45 19 6 -49 c9 -65 23 -94 52 -108 49 -22
95 16 115 94 l13 50 6 -35 6 -35 14 42 c16 52 27 48 24 -9 -1 -24 2 -46 7 -49
5 -3 -2 -18 -15 -32 -14 -15 -21 -27 -16 -27 6 0 10 -10 10 -21 0 -28 -36 -59
-69 -59 -14 -1 -37 -7 -51 -15 l-25 -14 27 -1 c15 0 39 5 55 12 48 19 57 15
74 -32 9 -25 35 -92 59 -150 37 -90 44 -119 50 -204 7 -106 1 -157 -45 -396
-22 -111 -26 -154 -22 -243 3 -59 9 -113 14 -120 6 -6 13 -22 16 -35 5 -23 -1
-22 -33 5 -8 7 -24 19 -35 28 -16 12 -16 14 -2 9 19 -7 20 -4 11 20 -3 9 -10
14 -14 11 -4 -3 -20 11 -34 30 -15 19 -31 35 -37 35 -5 0 -18 8 -28 18 -25 22
-69 53 -76 52 -3 0 -20 13 -37 29 -34 32 -48 32 -48 0 0 -11 -4 -17 -10 -14
-21 13 -9 -10 18 -33 l27 -23 -25 7 c-14 3 -33 13 -43 22 -16 15 -18 14 -24
-6 -3 -12 -10 -19 -16 -15 -5 3 -7 1 -3 -5 3 -6 1 -22 -5 -36 l-12 -25 -18 22
c-10 12 -19 18 -19 12 0 -5 -7 1 -14 15 l-14 25 -7 -38 c-4 -20 -12 -37 -18
-37 -6 0 -19 -7 -29 -17 -28 -25 -23 2 10 56 35 57 44 81 32 81 -6 0 -10 7
-10 16 0 8 -4 12 -10 9 -5 -3 -10 -2 -10 3 0 15 -99 10 -104 -5 -3 -7 -10 -13
-16 -13 -8 0 -8 4 0 13 49 57 53 61 47 44 -5 -12 -3 -17 5 -15 7 3 15 15 18
29 6 25 42 33 68 15 7 -5 15 -6 18 -3 3 3 17 1 31 -4 21 -8 36 -4 74 16 56 29
84 32 97 10 19 -34 147 19 147 61 0 16 -9 19 -55 22 -58 3 -109 21 -130 48
-21 25 -108 65 -115 53 -4 -5 -16 -7 -27 -3 -13 4 -24 1 -29 -7 -6 -10 -9 -11
-9 -1 0 6 -4 12 -10 12 -5 0 -10 -7 -10 -15 0 -9 -8 -19 -17 -22 -10 -4 -23
-14 -29 -23 -15 -20 -92 -58 -124 -60 -59 -5 -72 -1 -65 20 4 13 2 20 -7 20
-16 0 -41 37 -33 50 4 6 1 10 -5 10 -6 0 -8 5 -5 10 4 6 11 8 16 5 5 -3 6 0 4
7 -5 14 50 78 66 78 5 0 9 -7 9 -15 0 -13 4 -14 20 -5 11 6 19 14 18 18 -4 14
23 52 36 52 9 0 12 7 9 20 -3 11 -10 20 -15 20 -5 0 -6 -4 -3 -10 3 -5 2 -10
-4 -10 -5 0 -15 14 -23 30 -7 17 -16 30 -21 30 -7 0 -31 49 -29 61 1 3 -22 5
-49 5 -28 -1 -53 2 -56 7 -2 4 -16 1 -29 -7 -13 -9 -30 -16 -38 -16 -7 0 -17
-7 -20 -16 -4 -9 -9 -14 -13 -11 -3 4 -22 -11 -42 -32 -26 -27 -48 -70 -74
-138 -58 -157 -65 -205 -35 -266 23 -46 72 -67 193 -80 99 -11 156 -41 104
-54 -12 -3 -18 -11 -15 -19 3 -8 2 -13 -2 -13 -23 4 -24 -4 -3 -20 17 -13 22
-24 17 -37 -7 -17 -9 -16 -23 10 -11 21 -17 25 -23 15 -5 -7 -6 -17 -4 -21 5
-7 -18 -12 -38 -9 -4 0 -5 -6 -2 -14 3 -7 0 -22 -6 -32 -10 -16 -11 -16 -6 0
5 15 1 19 -20 16 -3 0 -12 8 -20 18 -13 17 -13 17 -14 -3 0 -26 -34 -58 -53
-51 -8 3 -18 2 -23 -3 -9 -8 -37 -13 -63 -11 -8 1 -11 7 -7 17 3 8 2 12 -4 9
-6 -3 -10 -17 -10 -30 0 -31 -20 -43 -27 -17 -4 16 -9 19 -22 13 -9 -5 -27
-14 -41 -20 -14 -6 -45 -23 -70 -37 -25 -14 -46 -25 -47 -24 -14 2 -25 -5 -54
-35 -19 -19 -42 -35 -52 -35 -23 0 -116 -96 -124 -128 -5 -22 -7 -70 -4 -113
1 -5 5 -7 11 -4 6 3 7 -1 4 -9 -7 -19 7 -21 24 -4 9 9 12 6 12 -13 0 -14 7
-34 16 -45 8 -10 13 -14 10 -9 -2 6 0 17 5 25 7 11 8 7 5 -12 -3 -15 -7 -32
-10 -37 -4 -5 -2 -12 3 -16 6 -3 15 3 21 14 6 12 16 18 25 15 8 -3 21 0 30 8
43 36 85 78 85 85 0 12 40 34 50 28 5 -3 11 -1 14 4 15 24 86 22 176 -4 49
-14 94 -24 100 -20 5 3 10 1 10 -4 0 -13 42 -10 52 4 4 5 11 -3 17 -18 13 -33
16 -34 16 -3 0 13 -3 22 -8 19 -4 -2 -10 3 -13 12 -5 12 -9 13 -20 4 -11 -9
-14 -8 -14 5 0 9 7 16 15 16 8 0 15 7 15 15 0 8 10 17 23 19 12 2 42 8 67 13
25 5 153 9 285 8 195 -1 247 -4 275 -17 80 -35 81 -36 111 -9 25 22 27 26 13
45 -8 11 -14 29 -14 40 0 17 -5 18 -67 12 -37 -4 -72 -11 -78 -16 -6 -5 -20
-7 -32 -4 -11 3 -34 -1 -51 -10 -38 -20 -42 -20 -42 -1 0 9 -6 12 -16 8 -9 -3
-20 0 -25 8 -8 12 -11 12 -19 -1 -9 -13 -10 -13 -10 1 0 8 5 20 11 26 14 14 3
34 -14 27 -7 -2 -22 4 -33 14 -20 19 -32 23 -86 23 -41 1 -155 -27 -213 -51
-35 -15 -44 -17 -109 -23 l-48 -5 6 31 c7 36 14 45 24 31 4 -6 15 -13 24 -17
13 -4 18 1 23 24 7 29 35 42 35 15 0 -26 52 -5 64 26 9 24 15 28 36 23 24 -5
70 23 70 43 0 4 14 7 30 8 17 1 30 -2 30 -7 0 -4 16 -1 35 7 32 13 38 12 76
-8 23 -12 53 -23 68 -24 14 -2 38 -6 52 -9 16 -4 47 2 86 18 39 16 66 21 74
16 8 -5 22 -9 32 -9 28 0 105 -62 118 -95 17 -45 20 -86 8 -101 -9 -11 -8 -14
1 -14 8 0 10 -8 6 -25 -4 -14 -1 -35 5 -46 8 -15 8 -19 0 -15 -17 11 -13 -40
5 -58 9 -9 11 -16 4 -16 -6 0 -9 -4 -6 -8 3 -5 -4 -43 -15 -85 -23 -90 -61
-320 -60 -361 0 -16 7 -36 16 -46 20 -22 19 -25 -10 -28 -14 -1 -25 3 -25 9 0
5 5 7 10 4 6 -3 10 -2 10 3 0 15 -48 11 -54 -4 -3 -9 -20 -14 -43 -14 -21 0
-33 -4 -28 -8 19 -13 17 -35 -2 -28 -17 6 -4 -7 54 -54 11 -8 14 -12 9 -9 -34
19 -78 14 -46 -6 6 -4 7 -11 4 -17 -4 -7 -10 -5 -16 6 -5 9 -16 16 -25 16 -14
0 -14 -2 3 -15 11 -9 0 -7 -25 5 l-44 22 5 -27 c5 -22 2 -26 -12 -22 -13 3
-17 0 -13 -9 3 -10 -7 -7 -30 8 -19 13 -33 26 -30 31 2 4 -1 7 -6 7 -14 0 -14
-27 -1 -35 6 -3 10 -10 10 -16 0 -13 -20 -11 -25 4 -19 53 -26 69 -30 65 -2
-2 1 -20 7 -40 9 -30 8 -39 -5 -52 -14 -15 -17 -15 -31 0 -9 8 -16 25 -17 37
-1 14 -4 9 -11 -14 -7 -29 -13 -36 -29 -32 -10 3 -19 12 -19 21 0 8 -3 12 -7
9 -3 -4 -16 1 -27 10 l-21 18 20 -25 c11 -14 26 -29 33 -33 6 -4 12 -13 12
-19 0 -7 -5 -6 -15 2 -8 7 -15 9 -15 4 -1 -5 -10 2 -20 15 l-20 23 0 -23 -1
-24 -18 23 c-11 12 -24 22 -31 22 -6 0 -17 14 -24 31 l-13 31 -7 -41 c-3 -23
-11 -41 -16 -41 -6 0 -10 5 -10 10 0 7 -6 7 -20 0 -16 -8 -22 -7 -32 9 -9 15
-15 17 -25 9 -11 -9 -12 -6 -3 17 8 21 8 30 -2 36 -6 4 -15 6 -19 3 -4 -2 -10
0 -14 6 -10 16 -25 11 -18 -6 3 -9 0 -20 -8 -26 -11 -7 -11 -11 -1 -15 6 -2
12 -13 12 -23 0 -10 6 -21 13 -23 7 -3 5 -6 -5 -6 -10 -1 -18 5 -18 12 0 7 -9
18 -19 24 -15 9 -19 21 -16 48 2 19 -1 35 -6 35 -5 0 -9 -8 -9 -18 0 -10 -9
-28 -20 -40 -11 -12 -20 -26 -20 -32 0 -6 -5 -8 -10 -5 -6 4 -8 10 -5 15 9 15
-7 40 -25 40 -14 0 -17 8 -15 45 1 47 -4 54 -27 33 -7 -7 -28 -14 -47 -15 -18
-1 -44 -9 -57 -18 -31 -20 -33 -19 -30 9 2 17 -1 23 -10 19 -8 -3 -14 -11 -14
-18 0 -8 -5 -17 -12 -21 -8 -5 -9 -2 -5 10 6 16 3 17 -20 11 -23 -5 -26 -4
-15 6 6 7 12 21 12 30 0 10 6 20 13 22 7 3 5 6 -6 6 -10 1 -20 -5 -23 -13 -7
-17 -44 -28 -44 -13 0 8 -4 7 -12 -1 -18 -18 -27 -14 -24 11 2 16 -3 23 -16
24 -10 1 -18 -5 -18 -13 0 -8 -4 -14 -10 -14 -5 0 -10 5 -10 12 0 6 -10 3 -21
-8 -22 -19 -22 -19 -14 6 4 14 12 27 16 28 5 2 9 8 9 13 0 5 -10 5 -22 0 -13
-5 -27 -9 -33 -10 -5 -1 -18 -4 -29 -7 -10 -3 -29 0 -43 7 l-24 13 23 19 23
18 -32 -6 c-36 -7 -52 8 -26 25 16 10 16 11 -4 7 -30 -7 -39 9 -14 23 12 6 18
16 15 25 -4 8 -10 12 -15 9 -16 -9 -10 29 8 48 15 17 15 18 -3 18 -15 0 -16 2
-5 9 8 5 11 16 8 25 -4 9 -2 16 3 16 6 0 10 4 10 9 0 5 -10 7 -22 3 -14 -3
-19 -2 -14 6 4 7 2 12 -4 12 -6 0 -8 5 -5 10 5 7 11 8 19 1 8 -7 12 -5 12 7 1
9 3 24 5 32 2 9 -2 15 -13 14 -10 -1 -14 4 -11 11 3 9 -2 12 -14 11 -10 -2
-33 12 -52 32 -30 30 -36 33 -46 19 -9 -12 -15 -13 -23 -5 -8 8 -7 15 4 25 19
19 19 39 -1 23 -12 -10 -15 -10 -15 0 0 7 8 19 18 26 16 12 15 13 -4 9 -17 -3
-21 1 -17 16 8 29 -6 23 -42 -18 -18 -21 -37 -35 -41 -30 -4 4 -2 13 4 19 20
20 15 40 -7 28 -30 -15 -34 -13 -29 20 3 17 1 30 -4 30 -4 0 -8 -8 -8 -17 -1
-10 -7 -29 -15 -43 -13 -22 -14 -23 -15 -5 -1 17 -2 18 -8 3 -4 -11 -12 -14
-20 -9 -9 5 -5 13 13 29 14 12 25 28 25 34 0 7 -5 5 -11 -4 -17 -30 -28 -20
-22 20 4 29 3 35 -7 25 -7 -6 -19 -9 -26 -6 -8 3 -14 -1 -14 -9 0 -8 -10 -14
-25 -14 -21 0 -25 5 -25 28 0 15 -4 28 -9 28 -17 0 -22 -19 -11 -40 8 -15 8
-20 -1 -20 -6 0 -13 9 -16 20 -3 11 -9 20 -14 20 -5 0 -6 8 -2 18 3 9 3 14 -1
10 -4 -3 -9 -14 -10 -24 -2 -10 -8 -20 -14 -22 -8 -2 -10 10 -6 42 6 40 5 46
-10 40 -13 -5 -16 0 -16 25 0 33 -8 39 -28 19 -9 -9 -12 -9 -13 3 -1 7 -2 19
-4 24 -1 6 -3 21 -4 35 -1 19 -3 22 -10 10 -6 -8 -7 -27 -4 -42 6 -29 -12 -62
-29 -52 -5 3 -18 -2 -29 -12 -20 -18 -20 -18 -9 10 6 16 7 34 3 40 -5 6 -8 18
-7 26 1 8 2 25 3 38 1 16 7 22 24 22 17 0 19 2 7 9 -8 6 -18 7 -23 4 -6 -4 -7
5 -2 23 4 16 9 40 11 54 2 14 6 35 10 48 4 15 2 22 -7 22 -7 0 -9 -3 -6 -7 8
-7 -11 -33 -25 -33 -5 0 -7 4 -3 9 3 6 2 28 -1 51 -4 26 -10 37 -14 29 -5 -7
-6 -19 -2 -27 3 -10 1 -13 -6 -8 -13 8 -12 56 1 56 4 0 5 5 1 12 -4 6 -3 8 3
5 6 -4 16 0 23 7 9 12 7 17 -9 26 -16 8 -21 8 -21 -1 0 -7 -2 -10 -6 -7 -3 3
2 21 10 39 14 31 15 31 11 7 -3 -20 0 -25 11 -21 8 3 14 12 14 20 0 8 6 13 13
10 16 -6 17 40 3 62 -6 10 -6 16 2 19 14 4 16 32 3 32 -5 0 -9 16 -9 36 0 23
4 34 12 31 7 -3 13 5 14 19 1 14 -4 27 -11 30 -8 3 -13 18 -12 35 1 16 -2 32
-6 35 -5 2 -5 12 -2 20 5 13 1 15 -14 10 -17 -6 -20 -3 -17 20 2 18 -1 24 -11
20 -8 -3 -17 -1 -21 5 -3 5 -14 7 -23 4 -10 -3 -24 1 -30 9 -11 12 -8 14 18
11 17 -2 31 0 31 5 0 6 -7 10 -16 10 -8 0 -13 4 -9 9 3 5 1 12 -4 15 -5 3 -12
-2 -15 -11 -6 -13 -11 -11 -34 15 -23 25 -31 29 -46 20 -16 -9 -18 -8 -14 10
4 16 2 19 -10 15 -10 -4 -13 -2 -8 5 4 7 2 12 -3 12 -6 0 -11 9 -11 20 0 11
-4 19 -9 18 -4 -2 -17 6 -27 17 -11 12 -15 15 -10 8 6 -9 3 -13 -7 -13 -15 0
-34 35 -29 53 1 4 -5 10 -13 13 -8 4 -15 18 -15 34 0 20 -6 29 -21 33 -12 3
-18 10 -15 16 4 6 -1 22 -10 35 -11 19 -14 36 -9 66 4 22 3 40 -2 40 -5 0 -9
10 -9 23 1 15 -4 21 -14 19 -12 -3 -12 -1 -3 9 9 9 16 9 26 1 11 -9 13 -6 9
18 -2 17 -9 30 -15 30 -12 0 0 14 14 16 5 1 15 2 22 3 7 1 4 7 -7 16 -20 15
-20 15 0 15 22 -1 57 -24 48 -33 -4 -3 7 -2 22 2 17 4 31 16 33 26 4 22 31 46
46 41 6 -2 22 3 36 10 15 7 29 10 33 7 3 -4 6 -1 6 6 0 8 6 11 16 7 8 -3 13
-2 10 3 -3 5 20 16 52 25 31 10 65 21 74 27 27 14 34 11 12 -6 -10 -8 -14 -15
-9 -16 6 0 21 -3 35 -5 14 -2 31 -5 38 -6 6 -1 11 -8 10 -17 -2 -10 3 -15 15
-13 9 2 17 -1 16 -5 -5 -28 8 -48 61 -101 33 -32 60 -55 60 -51 0 5 5 9 11 9
5 0 8 -3 6 -7 -3 -5 17 -9 44 -10 28 -2 62 -9 77 -17 34 -17 105 -28 126 -20
19 7 21 34 4 34 -8 1 -6 6 4 14 10 7 15 16 11 19 -3 4 -1 7 6 7 7 0 11 5 9 11
-2 6 -6 9 -8 7 -5 -3 -18 6 -55 40 -7 6 -18 12 -22 12 -5 0 -18 7 -29 16 -19
15 -18 15 4 11 12 -3 22 -1 22 4 0 5 10 9 22 9 12 0 18 3 15 6 -10 10 12 44
28 44 8 0 15 5 15 11 0 5 5 7 10 4 6 -3 10 -1 10 4 0 6 9 11 20 11 11 0 20 6
21 13 0 9 2 9 6 -1 4 -10 9 -8 20 8 8 11 20 19 26 18 7 -1 27 6 45 15 l32 18
0 -49 c0 -57 27 -104 79 -139 73 -50 170 22 171 127 l1 45 16 -29 c8 -16 26
-40 39 -53 28 -28 30 -40 7 -65 -15 -17 -15 -18 8 -18 13 0 39 4 58 10 19 5
45 7 58 4 23 -6 23 -8 17 -87 -6 -72 -5 -80 9 -74 10 4 17 3 17 -2 0 -4 6 -8
13 -8 6 0 26 -3 42 -7 25 -5 33 -2 49 19 10 14 24 25 31 25 7 0 18 7 25 15 9
11 22 14 49 9 37 -8 44 -8 74 -1 23 4 60 64 46 73 -6 3 -8 17 -4 31 4 17 -2
41 -20 74 -14 27 -25 55 -25 62 0 8 -7 28 -15 45 -9 17 -18 61 -21 97 -4 62
-3 67 17 72 15 4 17 8 7 14 -10 6 -10 11 0 21 14 14 17 52 3 44 -5 -4 -15 7
-22 23 l-13 30 -19 -27 -18 -27 6 51 c5 42 4 51 -9 51 -10 0 -16 -9 -16 -22 0
-12 -6 -30 -14 -40 -13 -18 -14 -18 -9 8 3 16 1 28 -6 28 -6 1 -15 2 -20 3 -5
0 -25 18 -44 39 -20 20 -43 38 -51 38 -9 1 -20 3 -26 4 -5 1 -46 3 -91 4 -50
1 -78 5 -74 11 8 13 -49 13 -92 1 -21 -6 -42 -6 -61 1 -23 9 -36 8 -62 -5 -40
-21 -41 -21 -33 -1 6 16 1 15 -84 -6 -19 -5 -33 -4 -35 1 -3 10 -15 11 -165 7
-57 -2 -103 -1 -103 2 0 4 5 11 12 18 9 9 8 12 -8 12 -26 0 -108 -26 -142 -44
-75 -41 -145 -67 -152 -55 -5 7 -18 9 -35 5 -26 -7 -26 -6 -11 10 9 9 14 19
11 22 -3 4 -10 0 -15 -8 -9 -13 -10 -13 -10 0 0 20 11 36 30 43 10 4 8 6 -7 6
-26 1 -29 13 -8 31 11 9 12 17 5 30 -14 25 -13 50 0 30 9 -13 11 -13 19 0 6 8
6 17 2 20 -17 10 -16 47 3 74 12 20 15 31 7 35 -8 5 -7 13 4 27 8 11 15 14 15
7 0 -7 5 -13 11 -13 8 0 8 4 1 13 -13 15 -4 60 9 51 5 -3 9 2 9 10 0 8 8 20
18 25 9 6 13 11 9 11 -5 0 1 12 12 26 11 15 18 31 15 36 -3 5 2 16 12 23 13
10 15 14 5 15 -11 0 -11 3 -1 15 9 11 9 15 1 15 -16 0 13 56 33 63 9 4 13 18
12 44 -3 48 2 59 18 37 10 -13 15 -14 21 -4 5 9 4 11 -3 6 -20 -12 -13 3 11
27 29 30 57 41 57 23 0 -8 4 -16 10 -18 15 -5 31 -68 17 -68 -6 0 -3 -6 6 -12
19 -15 28 -59 29 -136 0 -34 4 -49 9 -40 5 7 9 32 9 55 0 50 15 63 28 26 23
-61 11 12 -14 88 -25 78 -25 80 -8 107 10 15 19 34 21 42 3 21 46 55 51 40 3
-8 8 -8 17 0 9 8 15 8 20 0 10 -16 23 -12 30 8 3 11 17 24 30 30 14 6 25 19
25 28 0 12 7 15 30 12 19 -3 31 0 34 9 6 15 34 13 80 -6 17 -7 40 -8 60 -3 26
7 89 8 159 3 9 0 17 -7 17 -15 0 -8 4 -17 9 -20 5 -4 7 2 4 13 -4 15 1 18 29
16 18 -1 41 -6 51 -10 10 -4 17 -3 17 4 0 6 -4 11 -9 11 -13 0 -24 37 -15 51
4 8 9 7 15 -2 7 -12 13 -11 34 1 25 16 67 22 59 9z m-304 -15 c14 -1 38 -2 53
-3 17 -1 26 -5 22 -12 -4 -6 -36 -9 -76 -8 -37 1 -66 6 -63 11 3 4 10 5 16 2
8 -5 9 -1 5 10 -5 12 -3 15 6 9 6 -4 23 -9 37 -9z m2065 6 c-4 -6 -30 -22 -58
-36 -62 -32 -55 -20 11 18 56 31 55 31 47 18z m-2145 -35 c0 -8 -3 -15 -6 -15
-3 0 -12 7 -20 15 -14 13 -13 15 5 15 12 0 21 -6 21 -15z m1560 -106 c0 -11
-69 24 -74 38 -4 8 10 5 34 -9 22 -13 40 -26 40 -29z m341 35 c-19 -8 -36 -12
-39 -9 -6 6 37 24 58 24 8 0 0 -6 -19 -15z m-2331 -26 c0 -18 2 -19 17 -7 15
12 16 12 10 -4 -4 -10 -7 -23 -7 -28 0 -21 -17 -7 -28 24 -15 41 -15 50 -2 42
6 -3 10 -15 10 -27z m2055 22 c3 -5 1 -10 -4 -10 -6 0 -11 5 -11 10 0 6 2 10
4 10 3 0 8 -4 11 -10z m-15 -25 c20 -24 6 -28 -15 -5 -10 11 -13 20 -8 20 6 0
16 -7 23 -15z m-1990 -51 c0 -8 -5 -12 -10 -9 -6 4 -8 11 -5 16 9 14 15 11 15
-7z m2070 -59 c7 -9 8 -15 2 -15 -5 0 -12 7 -16 15 -3 8 -4 15 -2 15 2 0 9 -7
16 -15z m-35 -25 c3 -5 2 -10 -4 -10 -5 0 -13 5 -16 10 -3 6 -2 10 4 10 5 0
13 -4 16 -10z m124 -71 c2 -8 -10 -3 -29 12 -19 14 -36 32 -39 40 -2 8 10 3
29 -12 19 -14 36 -32 39 -40z m-361 -25 c-4 -3 -12 5 -18 18 -12 22 -12 22 6
6 10 -10 15 -20 12 -24z m80 -9 c-3 -3 -9 2 -12 12 -6 14 -5 15 5 6 7 -7 10
-15 7 -18z m417 -33 c-3 -3 -11 0 -18 7 -9 10 -8 11 6 5 10 -3 15 -9 12 -12z
m118 -63 c29 -10 43 -18 32 -18 -22 -1 -105 35 -105 44 0 3 5 3 11 0 5 -4 34
-15 62 -26z m-133 6 c14 -8 19 -14 10 -14 -8 0 -26 6 -40 14 -14 8 -19 14 -10
14 8 0 26 -6 40 -14z m-511 -65 c0 -23 -1 -23 -9 -5 -5 11 -9 29 -9 40 -1 17
1 17 9 5 5 -8 9 -26 9 -40z m728 34 c-3 -3 -12 -4 -19 -1 -8 3 -5 6 6 6 11 1
17 -2 13 -5z m-817 -409 c-7 -9 -15 -13 -17 -11 -7 7 7 26 19 26 6 0 6 -6 -2
-15z m-1240 -89 c0 -2 -7 -7 -16 -10 -8 -3 -12 -2 -9 4 6 10 25 14 25 6z m-95
-137 c71 -16 95 -39 58 -54 -28 -10 -290 -50 -393 -59 -19 -2 -43 -7 -53 -11
-9 -4 -28 -5 -42 -3 -14 3 -22 1 -18 -5 3 -5 -3 -6 -16 -2 -11 3 -26 3 -33 -1
-7 -5 -29 -9 -48 -10 -19 -2 -44 -4 -55 -6 -14 -2 -20 3 -21 19 -1 24 17 32
71 29 32 -1 35 1 31 20 -4 14 0 24 9 28 8 3 15 0 15 -6 0 -6 7 -4 18 5 10 9
34 17 55 19 26 1 36 6 33 15 -5 12 19 18 64 15 8 0 18 5 22 11 8 15 230 12
303 -4z m109 -99 c41 -15 30 -30 -21 -30 -43 -1 -111 -17 -331 -78 -71 -20
-90 -17 -78 13 8 21 98 64 179 85 79 20 211 26 251 10z m1144 -63 c3 -16 -35
-44 -45 -33 -4 3 -1 18 6 32 12 27 34 28 39 1z m236 -32 c20 -8 36 -12 36 -8
0 3 3 4 6 1 3 -4 1 -16 -6 -27 -10 -20 -12 -20 -40 -6 -17 9 -30 17 -30 19 0
3 -3 11 -6 20 -8 20 -5 20 40 1z m-1460 -21 c10 -26 7 -34 -14 -34 -15 0 -20
7 -20 25 0 28 24 34 34 9z m321 -94 c3 -5 2 -10 -4 -10 -5 0 -13 5 -16 10 -3
6 -2 10 4 10 5 0 13 -4 16 -10z m-2687 -14 c63 -17 114 -43 204 -103 51 -34
73 -56 90 -91 21 -44 26 -102 10 -126 -3 -6 -7 -15 -7 -21 -1 -9 -24 -62 -32
-74 -7 -10 -35 25 -52 65 -45 101 -180 231 -305 294 -84 43 -134 41 -192 -6
-30 -25 -41 -40 -35 -48 5 -6 11 -22 13 -36 1 -14 8 -28 13 -32 6 -5 4 -12 -5
-18 -15 -10 -8 -14 21 -11 9 1 19 -5 22 -14 4 -8 14 -15 23 -15 13 0 11 -8
-11 -46 -35 -59 -70 -254 -67 -371 1 -46 -1 -83 -6 -83 -12 0 -79 122 -98 176
-14 43 -35 194 -28 203 4 4 10 -27 22 -109 9 -64 9 -64 5 20 -5 73 -1 101 25
198 54 200 115 261 262 262 41 0 99 -7 128 -14z m2742 4 c0 -5 -4 -10 -9 -10
-6 0 -13 5 -16 10 -3 6 1 10 9 10 9 0 16 -4 16 -10z m-1540 -59 c0 -6 -4 -13
-10 -16 -5 -3 -10 1 -10 9 0 9 5 16 10 16 6 0 10 -4 10 -9z m-1253 -144 c11 4
14 3 9 -6 -5 -7 -2 -26 5 -42 7 -19 15 -26 19 -19 6 10 11 0 25 -50 10 -37 56
-112 77 -125 29 -17 29 -34 -3 -70 -34 -40 -59 -101 -60 -150 -1 -74 4 -115
13 -115 4 0 8 -7 8 -15 0 -16 1 -16 60 -19 22 0 40 2 40 6 0 8 72 30 77 24 10
-10 -11 -56 -27 -61 -11 -3 -22 -15 -25 -26 -4 -10 -11 -19 -16 -19 -5 0 -9
-6 -9 -14 0 -9 -8 -12 -24 -9 -13 3 -27 -1 -31 -8 -5 -8 -4 -10 3 -5 7 4 12 1
12 -9 0 -31 28 -44 111 -55 46 -5 117 -17 158 -25 41 -9 87 -13 103 -10 39 9
38 -17 -4 -58 -43 -44 -70 -105 -55 -128 10 -16 14 -16 38 -3 15 7 29 17 31
21 5 13 72 40 86 36 36 -13 -13 -148 -69 -189 -18 -13 -39 -22 -46 -19 -7 2
-24 0 -37 -5 -17 -6 -26 -5 -29 3 -3 9 -8 9 -18 0 -15 -15 -33 -17 -25 -4 3 5
-1 11 -9 15 -8 3 -15 1 -15 -5 0 -6 -6 -6 -19 0 -10 6 -21 8 -24 5 -3 -3 -8 4
-12 15 -3 12 -10 19 -15 16 -10 -6 -51 15 -74 38 -10 9 -25 17 -35 17 -23 0
-54 35 -58 65 -3 17 3 25 19 31 33 11 71 12 89 3 20 -10 89 10 96 28 7 19 -46
60 -103 78 -29 9 -60 22 -70 30 -13 9 -24 10 -38 3 -10 -6 -38 -7 -63 -3 -76
11 -158 101 -178 195 -18 83 -13 326 10 480 14 95 19 117 32 137 15 22 45 35
51 21 2 -4 10 -4 19 -1z m-397 -137 c0 -5 -2 -10 -4 -10 -3 0 -8 5 -11 10 -3
6 -1 10 4 10 6 0 11 -4 11 -10z m893 -181 c23 -12 62 -49 52 -49 -3 0 -3 -5 1
-11 4 -6 8 -35 10 -63 9 -120 14 -164 28 -213 7 -28 11 -54 8 -57 -3 -3 0 -6
6 -6 7 0 12 -8 12 -17 0 -20 -163 137 -185 179 -28 50 -15 219 17 240 17 10
25 10 51 -3z m2690 -104 c4 -8 2 -17 -3 -20 -6 -4 -10 3 -10 14 0 25 6 27 13
6z m-13 -455 c0 -5 -5 -10 -11 -10 -5 0 -7 5 -4 10 3 6 8 10 11 10 2 0 4 -4 4
-10z m-50 -27 c0 -8 -4 -12 -9 -9 -5 4 -11 0 -14 -6 -2 -7 -7 -10 -11 -7 -10
10 4 36 19 36 8 0 15 -7 15 -14z m-3087 -24 c26 -30 15 -34 -13 -4 -13 14 -19
25 -14 25 5 0 18 -9 27 -21z m3617 -10 c0 -6 -4 -7 -10 -4 -5 3 -10 11 -10 16
0 6 5 7 10 4 6 -3 10 -11 10 -16z m-2140 -13 c-5 -13 -6 -27 -2 -32 4 -4 2 -4
-4 -1 -13 7 -6 57 7 57 5 0 4 -11 -1 -24z m1420 -92 c0 -8 -5 -12 -10 -9 -6 4
-8 11 -5 16 9 14 15 11 15 -7z m370 -28 c0 -3 -4 -8 -10 -11 -5 -3 -10 -1 -10
4 0 6 5 11 10 11 6 0 10 -2 10 -4z m592 -73 c3 -21 0 -32 -6 -29 -6 2 -10 9
-8 15 1 7 -2 20 -7 30 -7 13 -6 18 4 18 8 0 15 -14 17 -34z m-72 -53 c0 -5 -2
-10 -4 -10 -3 0 -8 5 -11 10 -3 6 -1 10 4 10 6 0 11 -4 11 -10z m-3545 -31
c11 -17 -1 -21 -15 -4 -8 9 -8 15 -2 15 6 0 14 -5 17 -11z m2975 -39 c0 -5 -5
-10 -11 -10 -5 0 -7 5 -4 10 3 6 8 10 11 10 2 0 4 -4 4 -10z m640 -18 c0 -15
-2 -15 -10 -2 -13 20 -13 33 0 25 6 -3 10 -14 10 -23z m-3560 -33 c0 -18 -10
-8 -25 24 l-16 32 21 -24 c11 -13 20 -27 20 -32z m1360 1 c0 -5 -2 -10 -4 -10
-3 0 -8 5 -11 10 -3 6 -1 10 4 10 6 0 11 -4 11 -10z m1710 -16 c0 -2 -9 -4
-21 -4 -11 0 -18 4 -14 10 5 8 35 3 35 -6z m37 0 c-3 -3 -12 -4 -19 -1 -8 3
-5 6 6 6 11 1 17 -2 13 -5z m436 -34 c-3 -11 -9 -17 -15 -14 -5 3 -4 12 3 20
16 19 18 18 12 -6z m-13 -40 c0 -5 -4 -10 -10 -10 -5 0 -10 5 -10 10 0 6 5 10
10 10 6 0 10 -4 10 -10z m-3457 -40 c3 -11 2 -18 -3 -15 -4 3 -10 14 -13 25
-3 11 -2 18 3 15 4 -3 10 -14 13 -25z m1226 -10 c0 -10 -2 -11 -6 -2 -2 6 -8
10 -13 7 -4 -3 -6 4 -3 16 4 16 8 17 14 7 5 -7 8 -20 8 -28z m255 16 c-6 -15
-34 -31 -34 -19 0 5 30 32 37 33 1 0 0 -6 -3 -14z m1956 -1 c0 -8 -2 -15 -4
-15 -2 0 -6 7 -10 15 -3 8 -1 15 4 15 6 0 10 -7 10 -15z m-1417 -28 c7 4 6 -1
-2 -10 -19 -24 -21 -22 -20 16 1 23 3 26 6 9 3 -14 9 -20 16 -15z m-568 -17
c3 -5 1 -10 -4 -10 -6 0 -11 5 -11 10 0 6 2 10 4 10 3 0 8 -4 11 -10z m108
-52 c-3 -16 -9 -28 -14 -28 -11 0 -11 3 1 36 13 33 20 29 13 -8z m47 -12 c0
-3 -4 -8 -10 -11 -5 -3 -10 -1 -10 4 0 6 5 11 10 11 6 0 10 -2 10 -4z m195
-105 c3 -5 1 -12 -5 -16 -5 -3 -10 1 -10 9 0 18 6 21 15 7z m5 -41 c0 -5 -5
-10 -11 -10 -5 0 -7 5 -4 10 3 6 8 10 11 10 2 0 4 -4 4 -10z m31 -55 c14 -9
11 -25 -6 -25 -8 0 -15 5 -15 10 0 6 -5 10 -11 10 -5 0 -8 -3 -5 -8 2 -4 -2
-16 -10 -27 -8 -10 -14 -17 -15 -14 0 2 -2 12 -4 22 -2 9 1 15 6 11 13 -7 11
10 -2 23 -7 7 -2 10 21 7 17 -2 36 -6 41 -9z m-25 -93 c19 -13 25 -42 9 -42
-8 0 -15 7 -15 15 0 8 -4 15 -10 15 -5 0 -10 5 -10 10 0 12 11 13 26 2z m-16
-67 c-14 -17 -40 -20 -40 -6 0 5 10 12 23 14 12 2 24 5 26 6 2 0 -2 -6 -9 -14z
m8 -40 c-2 -2 -15 -1 -28 2 l-25 7 25 6 c22 6 39 -4 28 -15z m192 -60 c0 -2
-7 -5 -15 -9 -9 -3 -15 0 -15 9 0 9 6 12 15 9 8 -4 15 -7 15 -9z m1300 -13 c0
-13 -12 -22 -22 -16 -10 6 -1 24 13 24 5 0 9 -4 9 -8z m-48 -47 c3 -13 1 -22
-3 -19 -9 5 -13 44 -5 44 2 0 6 -11 8 -25z m78 -11 c0 -2 -9 0 -20 6 -11 6
-20 13 -20 16 0 2 9 0 20 -6 11 -6 20 -13 20 -16z m-1020 -28 c0 -8 -4 -17 -9
-21 -6 -3 -9 4 -8 15 1 23 17 28 17 6z m76 -13 c-10 -10 -19 5 -10 18 6 11 8
11 12 0 2 -7 1 -15 -2 -18z m205 -56 c-10 -9 -11 -8 -5 6 3 10 9 15 12 12 3
-3 0 -11 -7 -18z m191 -37 c9 -10 13 -22 8 -29 -5 -9 -9 -5 -14 13 -4 16 -11
23 -20 20 -7 -3 -16 2 -19 10 -8 19 21 10 45 -14z m301 10 c3 -11 2 -20 -3
-20 -4 0 -10 9 -13 20 -3 11 -2 20 3 20 4 0 10 -9 13 -20z m-538 0 c3 -5 1
-10 -4 -10 -6 0 -11 5 -11 10 0 6 2 10 4 10 3 0 8 -4 11 -10z m85 -11 c0 -11
-4 -18 -10 -14 -5 3 -7 12 -3 20 7 21 13 19 13 -6z m-23 -61 c-3 -8 -6 -5 -6
6 -1 11 2 17 5 13 3 -3 4 -12 1 -19z m273 12 c0 -5 -4 -10 -10 -10 -5 0 -10 5
-10 10 0 6 5 10 10 10 6 0 10 -4 10 -10z m-60 -266 c14 -1 35 -2 48 -3 28 -1
49 -35 100 -165 99 -247 121 -415 102 -759 -20 -349 -16 -606 14 -829 30 -223
31 -248 14 -248 -7 0 -53 30 -103 66 -169 124 -347 236 -453 287 -110 52 -238
98 -257 91 -21 -8 -37 -45 -25 -59 8 -10 1 -14 -37 -20 -31 -4 -49 -3 -51 4
-8 23 -74 11 -136 -24 -35 -19 -73 -35 -84 -35 -12 0 -21 -5 -20 -12 2 -8 -23
-18 -66 -27 -62 -13 -74 -13 -112 1 -36 13 -46 13 -55 2 -21 -26 -89 -55 -107
-45 -10 6 -23 6 -33 0 -12 -6 -19 -4 -23 6 -8 22 -36 18 -36 -5 0 -11 -6 -20
-14 -20 -17 0 -101 -90 -110 -118 -4 -12 -11 -22 -16 -22 -17 0 -180 -185
-180 -204 0 -3 6 -6 14 -6 21 0 86 -70 107 -117 15 -31 31 -47 66 -65 25 -13
52 -32 59 -43 16 -25 35 -139 23 -143 -9 -4 11 -52 22 -52 4 0 10 -9 14 -19 3
-10 13 -21 23 -24 9 -3 26 -8 37 -13 19 -7 19 -7 3 13 -10 11 -18 23 -18 28 0
5 11 -6 25 -25 27 -36 30 -45 16 -36 -9 6 -24 -35 -16 -43 3 -2 5 1 5 8 0 7
11 0 25 -14 l24 -27 25 27 c14 15 23 31 20 36 -3 5 4 9 15 9 14 0 23 -9 27
-25 3 -14 10 -25 15 -25 5 0 9 -6 9 -13 0 -12 10 -27 50 -75 14 -16 3 -348
-14 -417 -13 -53 -11 -102 5 -121 6 -7 13 -77 16 -156 5 -110 10 -146 21 -154
10 -7 13 -18 8 -30 -8 -18 -8 -18 -17 1 -8 17 -9 17 -5 -4 3 -14 1 -31 -5 -37
-13 -16 -7 -70 7 -67 7 1 13 -18 16 -48 3 -27 13 -57 22 -67 15 -18 15 -20 -2
-39 -13 -15 -26 -20 -50 -17 -23 3 -32 0 -32 -11 0 -8 -4 -15 -8 -15 -10 0
-11 -9 -12 -113 -1 -42 1 -81 5 -86 3 -5 -1 -12 -7 -14 -10 -4 -10 -8 1 -15
21 -15 23 -42 3 -35 -13 3 -12 1 3 -11 17 -14 20 -14 27 -1 7 11 15 12 34 5
34 -13 33 -13 43 13 7 18 10 11 17 -38 4 -33 8 -67 8 -77 1 -9 11 -30 24 -47
27 -37 27 -41 1 -41 -20 0 -21 -4 -15 -46 3 -26 6 -70 6 -99 0 -44 3 -54 20
-58 24 -6 28 -47 4 -47 -39 0 -55 -47 -62 -180 -8 -155 -7 -404 2 -465 11 -81
13 -156 5 -161 -4 -2 -3 -21 1 -41 5 -20 6 -41 3 -47 -9 -14 -11 -30 -29 -251
-4 -49 -8 -198 -8 -329 0 -192 2 -240 13 -244 10 -3 11 -6 1 -12 -8 -5 -10
-18 -6 -36 6 -22 9 -25 18 -13 8 11 9 10 4 -4 -3 -10 -6 -23 -6 -28 0 -5 -6
-9 -14 -9 -22 0 -27 -41 -10 -89 23 -68 9 -60 -26 16 -17 37 -51 111 -75 163
-47 100 -139 333 -225 564 -57 155 -82 247 -165 606 -31 135 -67 290 -80 345
-13 55 -38 165 -56 245 -17 80 -42 195 -56 255 -26 119 -94 446 -174 835 -27
135 -61 295 -75 355 -14 61 -34 148 -44 195 -11 47 -33 144 -50 215 -17 72
-47 198 -65 280 -19 83 -50 213 -69 290 -59 238 -85 366 -101 490 -8 66 -23
152 -34 190 -10 39 -22 95 -25 125 -6 62 -15 96 -50 189 -23 60 -101 307 -140
441 -49 167 -83 418 -73 534 6 74 44 237 59 251 7 7 9 -16 4 -76 -14 -200 35
-295 296 -572 116 -123 227 -216 388 -324 105 -70 121 -78 130 -63 11 17 -18
70 -35 64 -8 -3 -16 3 -20 15 -3 12 -11 19 -16 16 -5 -4 -9 -3 -10 2 0 4 -3
17 -5 28 -3 11 -6 27 -8 35 -1 9 -5 20 -9 27 -4 6 5 16 23 23 28 12 41 30 21
30 -5 0 -8 11 -8 25 0 14 5 25 13 25 8 0 11 6 8 15 -4 8 -11 12 -16 9 -6 -4
-5 2 1 14 6 12 16 24 21 27 7 4 7 13 0 26 -11 19 -4 24 27 20 6 -1 15 4 19 10
4 8 3 9 -4 5 -7 -4 -12 -2 -12 3 0 6 9 11 19 11 11 0 23 5 27 11 5 8 9 8 14
-1 6 -9 12 -10 26 -1 18 10 18 10 -1 11 -15 0 -17 2 -6 13 10 10 15 9 25 -5
16 -22 26 -23 26 -3 0 17 18 19 40 5 12 -8 12 -10 1 -10 -8 0 -11 -3 -8 -6 4
-4 13 -1 22 6 9 8 15 8 15 2 0 -6 12 -12 27 -14 14 -2 29 -9 31 -17 3 -8 0
-11 -5 -8 -5 3 -10 0 -10 -8 0 -8 4 -12 9 -9 4 3 8 0 8 -5 0 -6 -6 -11 -12
-11 -16 -1 33 -29 50 -30 8 0 10 5 6 13 -4 6 3 3 16 -8 13 -11 20 -15 17 -9
-4 7 4 14 21 17 73 14 127 37 104 45 -10 3 -9 7 3 16 9 6 17 27 17 45 1 24 7
35 20 39 10 2 18 10 18 18 0 9 10 12 30 9 27 -3 35 3 31 28 0 4 17 7 40 7 22
0 38 4 35 8 -3 5 2 9 10 9 9 0 13 -6 10 -14 -3 -8 -2 -12 3 -9 16 10 19 56 4
56 -8 0 -11 -5 -7 -12 4 -7 3 -8 -5 -4 -17 11 -3 26 24 26 12 0 26 7 29 16 3
8 10 12 16 9 5 -3 10 1 10 9 0 9 -5 15 -11 13 -6 -1 -14 4 -17 12 -3 8 0 11 7
7 7 -4 11 1 11 13 0 11 9 26 20 34 11 8 17 17 12 22 -4 4 3 5 14 1 16 -5 23
-2 27 14 4 15 13 20 39 20 19 0 38 3 42 7 10 10 46 11 52 1 3 -5 12 -4 20 3
10 8 14 8 14 0 0 -6 11 -11 25 -11 14 0 25 4 25 8 0 12 41 12 62 1 13 -7 18
-6 18 3 0 7 21 22 48 32 26 10 57 29 69 42 12 12 36 25 53 29 16 4 35 15 40
26 6 10 18 19 27 19 9 0 27 10 40 22 23 21 23 21 37 2 14 -18 15 -18 21 -2 4
10 11 15 16 12 6 -3 17 0 25 7 8 7 29 13 47 14 18 0 38 4 44 8 6 4 14 3 18 -2
6 -10 62 4 79 20 5 4 14 5 20 1 6 -4 22 -8 36 -8z m138 -26 c7 -7 12 -19 12
-27 0 -11 -4 -10 -20 4 -21 19 -26 35 -12 35 4 0 13 -5 20 -12z m622 -464 c0
-2 -9 0 -20 6 -11 6 -20 13 -20 16 0 2 9 0 20 -6 11 -6 20 -13 20 -16z m80
-30 c19 -7 27 -13 17 -14 -21 0 -87 26 -87 36 0 3 8 3 18 -1 9 -4 33 -14 52
-21z m131 -30 c39 -9 69 -18 66 -20 -2 -2 -39 4 -83 15 -43 10 -73 19 -66 20
7 1 45 -6 83 -15z m106 -30 c-3 -3 -12 -4 -19 -1 -8 3 -5 6 6 6 11 1 17 -2 13
-5z m-2850 -87 c0 -8 -6 -14 -13 -14 -7 0 -10 6 -7 14 3 7 8 13 12 13 4 0 8
-6 8 -13z m5183 -536 c0 -5 -9 -7 -20 -4 -11 3 -20 7 -20 9 0 2 9 4 20 4 11 0
20 -4 20 -9z m-3872 -473 c7 -7 12 -25 12 -40 0 -22 -5 -28 -21 -28 -37 0 -59
19 -59 50 0 26 4 30 28 30 15 0 33 -5 40 -12z m67 2 c36 -14 32 -55 -5 -55
-21 0 -26 5 -28 33 -4 36 -4 36 33 22z m-175 -19 c0 -26 -38 -34 -50 -11 -15
27 -13 30 20 30 23 0 30 -5 30 -19z m-210 -17 c0 -9 -10 -14 -27 -14 -25 0
-26 1 -8 20 19 21 35 18 35 -6z m109 10 c28 -20 13 -34 -36 -34 -36 0 -38 2
-23 31 13 23 28 24 59 3z m373 7 c21 -8 24 -14 20 -45 -5 -43 -14 -45 -48 -11
-20 20 -23 28 -14 45 12 23 11 23 42 11z m108 -45 c0 -2 -8 -10 -17 -17 -16
-13 -17 -12 -4 4 13 16 21 21 21 13z m-895 -16 c-3 -5 -12 -10 -20 -10 -8 0
-17 5 -20 10 -4 6 5 10 20 10 15 0 24 -4 20 -10z m310 -10 c3 -5 19 -10 35
-10 16 0 31 -3 33 -7 3 -5 -21 -6 -54 -5 -32 2 -59 7 -59 11 0 21 34 29 45 11z
m-85 -20 c0 -12 -79 -10 -86 2 -3 4 15 8 40 8 25 0 46 -4 46 -10z m-242 -6
c27 -8 29 -40 2 -49 -27 -9 -40 1 -40 31 0 26 3 27 38 18z m126 -9 c3 -9 0
-15 -8 -15 -8 0 -16 7 -20 15 -3 9 0 15 8 15 8 0 16 -7 20 -15z m655 -6 c33
-31 25 -63 -17 -67 -38 -4 -62 12 -62 41 0 20 26 46 46 47 5 0 20 -9 33 -21z
m-220 -23 c12 -26 12 -31 -5 -43 -26 -19 -54 -16 -81 9 -27 26 -29 43 -5 57
32 20 76 9 91 -23z m89 28 c16 -5 22 -14 22 -35 0 -26 -3 -29 -35 -29 -32 0
-35 3 -35 28 0 41 7 47 48 36z m-709 -17 c6 -8 8 -17 4 -20 -11 -12 -41 -7
-46 7 -10 27 22 36 42 13z m931 -24 c0 -7 -11 -13 -25 -13 -20 0 -25 5 -25 24
0 22 2 23 25 13 14 -7 25 -18 25 -24z m-1077 21 c11 -11 -3 -24 -18 -18 -8 4
-12 10 -9 15 6 11 18 12 27 3z m82 -42 c-6 -7 -35 18 -35 31 0 5 9 2 20 -8 11
-10 18 -20 15 -23z m375 28 c0 -5 -9 -14 -20 -20 -17 -9 -20 -8 -20 10 0 13 7
20 20 20 11 0 20 -4 20 -10z m48 -20 c3 -15 -3 -29 -14 -37 -25 -19 -34 -16
-35 10 -1 16 -2 18 -6 5 -4 -17 -23 -26 -23 -11 0 13 54 63 65 60 5 -2 12 -14
13 -27z m122 17 c0 -7 -6 -21 -12 -30 -19 -25 -58 -12 -58 19 0 21 5 24 35 24
22 0 35 -5 35 -13z m497 -12 c-4 -8 -11 -15 -17 -15 -7 0 -7 6 0 21 13 23 26
19 17 -6z m-1102 -5 c3 -5 1 -10 -4 -10 -6 0 -11 5 -11 10 0 6 2 10 4 10 3 0
8 -4 11 -10z m338 -21 c3 -12 0 -22 -8 -25 -25 -10 -50 1 -53 24 -3 18 1 22
26 22 22 0 31 -6 35 -21z m-109 -5 c8 -22 9 -22 -49 -26 -40 -2 -50 0 -53 14
-5 28 92 39 102 12z m652 -52 c3 -15 7 -31 9 -37 4 -17 -75 -17 -81 0 -4 8
-17 15 -30 15 -18 0 -24 5 -24 23 0 18 2 19 10 7 8 -13 10 -13 10 2 0 21 57
39 82 26 10 -5 20 -21 24 -36z m-817 14 c9 -10 8 -15 -2 -19 -19 -7 -41 8 -33
22 10 15 21 14 35 -3z m521 3 c0 -14 -20 -20 -43 -13 -21 7 -21 7 -2 14 25 9
45 9 45 -1z m388 -15 c2 -17 -3 -22 -27 -26 -29 -4 -31 -2 -31 24 0 26 3 29
28 26 19 -2 28 -9 30 -24z m70 -6 c-4 -39 -23 -47 -32 -13 -8 30 -1 45 20 45
11 0 14 -9 12 -32z m-838 12 c0 -5 -9 -10 -21 -10 -11 0 -17 5 -14 10 3 6 13
10 21 10 8 0 14 -4 14 -10z m437 -14 c-2 -6 -19 -14 -38 -17 l-34 -6 38 -2
c53 -2 39 -17 -18 -20 -55 -2 -57 12 -6 46 32 22 65 21 58 -1z m103 -6 c0 -27
-3 -30 -30 -30 -27 0 -30 3 -30 30 0 27 3 30 30 30 27 0 30 -3 30 -30z m-772
-15 c3 -11 -1 -15 -10 -11 -7 3 -21 9 -30 12 -28 10 -21 23 10 20 16 -2 28
-10 30 -21z m402 5 l20 -20 -20 -20 c-25 -25 -82 -28 -73 -5 3 9 2 15 -3 14
-36 -6 -45 15 -16 37 25 20 69 17 92 -6z m110 -5 c0 -21 -5 -25 -30 -25 -25 0
-30 4 -30 25 0 21 5 25 30 25 25 0 30 -4 30 -25z m58 13 c-6 -18 -28 -21 -28
-4 0 9 7 16 16 16 9 0 14 -5 12 -12z m610 -29 c23 -26 32 -30 47 -22 40 23 95
-13 150 -98 13 -20 31 -36 42 -37 10 -1 60 -1 111 -2 l92 0 1 -38 c2 -48 3
-37 -16 -212 -3 -25 -7 -72 -11 -105 -7 -72 -9 -87 -30 -240 -16 -120 -21
-167 -25 -237 -1 -21 -6 -38 -11 -38 -20 0 4 -87 32 -118 22 -23 46 -31 34
-10 -4 6 -3 8 4 4 6 -3 9 -15 7 -25 -3 -15 1 -18 18 -14 16 3 18 2 9 -5 -11
-7 -11 -10 2 -15 9 -4 13 -13 10 -22 -5 -11 -2 -14 12 -8 11 4 15 3 10 -5 -4
-6 1 -19 11 -29 10 -10 17 -27 15 -37 -3 -11 0 -16 7 -12 6 4 11 2 11 -3 0 -6
7 -11 16 -11 8 0 12 -5 9 -10 -4 -6 -11 -8 -16 -5 -5 4 -9 1 -9 -5 0 -6 8 -9
18 -6 28 9 54 -57 48 -121 -4 -32 -2 -53 4 -53 6 0 10 -12 9 -27 l-1 -28 -8
25 c-4 14 -9 23 -10 20 -2 -7 -3 -177 -1 -220 3 -53 -5 -145 -13 -159 -12 -18
-15 -81 -5 -81 6 0 6 -8 0 -19 -8 -14 -6 -22 9 -36 10 -9 23 -14 28 -11 12 7
22 -16 22 -50 0 -14 4 -22 10 -19 6 3 10 1 10 -4 0 -6 -6 -11 -12 -11 -9 0 -8
-4 2 -11 11 -8 12 -12 3 -16 -7 -2 -13 -18 -13 -34 0 -18 -4 -28 -10 -24 -5 3
-10 -1 -10 -10 0 -10 4 -13 13 -8 6 4 4 -6 -7 -21 -10 -16 -13 -26 -8 -22 6 4
18 -9 27 -28 14 -28 16 -59 12 -178 -2 -79 -8 -172 -12 -208 -4 -36 -8 -135
-9 -220 -2 -98 -11 -203 -24 -285 -12 -71 -26 -173 -32 -225 -16 -146 -60
-430 -73 -478 -9 -34 -16 -42 -32 -40 -13 2 -21 11 -22 28 -4 60 -44 233 -56
241 -5 4 -6 16 -2 28 3 11 2 21 -3 21 -5 0 -9 17 -8 38 0 20 -4 36 -9 35 -6
-1 -9 15 -8 35 2 55 -8 122 -19 116 -11 -7 -6 35 6 55 5 8 4 16 -4 21 -7 4
-14 33 -15 66 -2 33 -11 82 -20 109 -8 28 -18 66 -21 85 -3 19 -12 62 -20 96
-17 74 -10 154 19 241 11 33 10 45 -6 93 -10 30 -23 60 -29 65 -8 7 -8 5 -3
-5 5 -8 -3 -3 -18 13 -14 15 -30 27 -35 27 -10 0 -22 48 -57 234 -13 71 -27
131 -31 135 -4 3 -4 -6 -1 -20 8 -31 -11 -53 -37 -43 -11 4 -16 19 -16 51 0
43 1 45 25 41 28 -6 30 0 13 37 -15 34 -61 35 -84 0 -19 -29 -34 -32 -35 -7 0
10 -3 12 -6 4 -2 -6 -9 -9 -15 -6 -6 4 -14 1 -18 -6 -5 -8 -15 -10 -26 -5 -18
6 -17 8 4 16 12 4 22 14 22 21 0 9 -3 9 -12 0 -20 -20 -55 -14 -62 11 -12 46
-8 57 24 57 16 0 33 -7 38 -16 11 -20 27 -1 18 22 -5 12 2 15 32 12 33 -3 37
-6 37 -31 -1 -25 2 -27 28 -23 16 3 31 7 34 9 2 3 -13 63 -35 134 -22 70 -47
153 -55 183 -41 151 -91 319 -103 348 -8 18 -14 37 -14 43 0 27 -44 108 -61
112 -10 3 -19 11 -19 17 0 7 7 10 15 6 8 -3 15 -1 15 3 0 5 -26 80 -57 167
-41 116 -57 175 -59 219 -1 38 -10 74 -23 100 -12 21 -21 47 -21 57 0 10 -7
18 -15 18 -8 0 -15 7 -15 15 0 21 27 19 39 -2 12 -23 18 -17 26 30 7 35 6 37
-20 37 -32 0 -29 23 3 25 12 1 25 4 28 8 7 7 43 103 100 269 23 69 47 135 53
145 5 10 24 51 43 91 38 84 60 93 106 41z m-1228 1 c0 -5 -4 -10 -10 -10 -5 0
-10 5 -10 10 0 6 5 10 10 10 6 0 10 -4 10 -10z m288 -23 c2 -11 -3 -17 -17
-17 -23 0 -35 15 -26 31 10 15 39 6 43 -14z m567 1 c-11 -6 -24 -17 -28 -25
-4 -7 -17 -13 -27 -13 -11 0 -20 -4 -20 -9 0 -4 -12 -6 -26 -3 -19 3 -22 7
-12 13 11 7 10 11 -2 19 -11 7 0 10 38 10 28 0 52 5 52 10 0 6 10 10 23 10 21
-1 21 -1 2 -12z m-5412 -5 c-7 -2 -19 -2 -25 0 -7 3 -2 5 12 5 14 0 19 -2 13
-5z m5605 -31 c3 -32 2 -33 -30 -30 -29 3 -33 6 -29 28 7 51 54 53 59 2z
m-862 12 c-3 -9 -6 -18 -6 -20 0 -2 -9 -4 -21 -4 -11 0 -17 5 -14 10 4 6 11 8
16 4 5 -3 9 -2 8 3 -3 16 1 23 12 23 6 0 8 -7 5 -16z m771 -4 c4 -23 -9 -38
-40 -45 -26 -7 -27 -5 -27 30 0 35 1 36 32 33 20 -2 34 -9 35 -18z m-366 0
c26 -14 24 -45 -3 -64 -28 -20 -58 -20 -58 -1 0 8 -9 15 -19 15 -31 0 -36 21
-10 41 27 21 61 24 90 9z m119 -20 c0 -27 -3 -30 -30 -30 -25 0 -30 4 -30 23
0 13 3 27 7 30 3 4 17 7 30 7 19 0 23 -5 23 -30z m165 -58 c2 -12 -1 -20 -6
-16 -5 3 -9 14 -9 25 0 14 -7 19 -29 19 -39 0 -49 17 -18 29 14 6 29 16 33 23
8 12 18 -17 29 -80z m-430 27 c9 -27 2 -33 -30 -25 -16 4 -25 13 -25 26 0 28
46 28 55 -1z m-455 1 c0 -5 -2 -10 -4 -10 -3 0 -8 5 -11 10 -3 6 -1 10 4 10 6
0 11 -4 11 -10z m313 3 c4 -3 1 -13 -5 -22 -10 -12 -8 -12 8 2 27 22 34 22 34
-3 0 -11 -7 -20 -15 -20 -8 0 -15 -4 -15 -10 0 -5 -7 -10 -15 -10 -8 0 -15 7
-15 15 0 9 -7 18 -15 21 -12 5 -13 10 -4 20 12 15 31 18 42 7z m464 1 c-3 -3
-12 -4 -19 -1 -8 3 -5 6 6 6 11 1 17 -2 13 -5z m-26 -43 c21 -16 22 -22 11
-45 -15 -32 -52 -35 -93 -5 -35 24 -37 42 -6 57 34 16 62 14 88 -7z m117 -20
c5 -31 -9 -44 -42 -35 -21 5 -26 12 -26 36 0 27 2 29 33 26 25 -2 33 -8 35
-27z m61 12 c1 10 9 17 22 17 17 0 20 -5 17 -37 -2 -20 -9 -38 -17 -41 -9 -3
-11 2 -6 17 4 15 2 21 -9 21 -8 0 -16 -10 -18 -22 -2 -12 -8 -23 -15 -25 -9
-3 -10 4 -3 26 4 16 6 32 3 35 -3 2 -2 10 3 17 5 9 10 7 15 -7 7 -17 8 -17 8
-1z m106 5 c31 -14 28 -32 -8 -36 -23 -3 -27 0 -27 22 0 30 0 30 35 14z m-827
-15 c2 -8 -5 -13 -17 -13 -12 0 -21 6 -21 16 0 18 31 15 38 -3z m-94 -9 c9
-24 7 -34 -8 -34 -7 0 -16 11 -18 25 -6 28 16 36 26 9z m376 -12 l23 -19 -21
-21 c-23 -23 -52 -29 -52 -12 0 6 -9 10 -19 10 -26 0 -35 27 -10 35 10 4 19
11 19 16 0 15 37 10 60 -9z m130 9 c0 -23 -14 -41 -31 -41 -19 0 -43 33 -32
44 10 10 63 7 63 -3z m-600 -21 c0 -5 -4 -10 -10 -10 -5 0 -10 5 -10 10 0 6 5
10 10 10 6 0 10 -4 10 -10z m806 -28 c44 3 74 -18 74 -52 0 -32 -27 -47 -57
-32 -10 6 -48 8 -85 5 -59 -4 -68 -3 -68 12 0 27 19 55 38 55 21 -1 52 -23 52
-38 0 -6 4 -13 9 -16 4 -3 6 6 3 19 -2 14 -8 25 -13 25 -5 0 -9 12 -9 28 1 25
2 26 14 9 8 -11 25 -17 42 -15z m-486 -12 c0 -23 -10 -26 -28 -8 -18 18 -15
28 8 28 13 0 20 -7 20 -20z m-108 -20 c6 -37 -14 -40 -30 -6 -9 21 -8 25 6 29
9 3 18 5 18 6 1 0 4 -12 6 -29z m403 8 c33 -15 33 -51 0 -66 -32 -15 -54 -6
-66 27 -8 20 -7 28 7 38 22 16 26 16 59 1z m333 -15 c-4 -35 -33 -43 -41 -12
-8 29 -1 39 24 39 16 0 20 -6 17 -27z m-413 -12 c3 -5 1 -12 -5 -16 -5 -3 -10
1 -10 9 0 18 6 21 15 7z m-65 -32 c0 -25 -33 -22 -38 4 -2 12 3 17 17 17 15 0
21 -6 21 -21z m-147 -17 c-2 -10 -11 -19 -19 -19 -17 0 -18 4 -1 22 17 20 26
18 20 -3z m43 -21 c-13 -20 -26 -11 -26 16 0 25 1 26 16 11 9 -9 13 -21 10
-27z m383 13 c29 -6 31 -9 29 -49 -3 -41 -4 -42 -33 -35 -46 10 -75 32 -75 57
0 30 22 38 79 27z m121 -34 c0 -28 -3 -30 -35 -30 -32 0 -35 2 -35 30 0 28 3
30 35 30 32 0 35 -2 35 -30z m91 -2 c-5 -26 -12 -34 -34 -36 -21 -3 -28 2 -33
22 -8 34 2 46 40 46 32 0 33 -1 27 -32z m-726 2 c3 -5 -3 -10 -14 -10 -11 0
-23 5 -26 10 -3 6 3 10 14 10 11 0 23 -4 26 -10z m403 -12 c-2 -16 -11 -24
-29 -26 -22 -3 -25 1 -23 20 1 13 3 24 3 26 1 1 13 2 27 2 21 0 25 -4 22 -22z
m-115 -13 c4 -8 3 -16 -1 -19 -13 -8 -35 11 -28 23 10 15 23 14 29 -4z m-46
-9 c-3 -7 0 -20 6 -27 10 -11 9 -11 -5 0 -9 7 -22 10 -28 6 -11 -7 -14 17 -3
28 12 13 35 7 30 -7z m-112 -36 c0 -22 -29 -18 -33 3 -3 14 1 18 15 15 10 -2
18 -10 18 -18z m373 2 c29 -4 32 -7 32 -41 0 -36 -1 -37 -34 -33 -33 4 -34 5
-29 38 5 30 3 34 -16 34 -11 0 -21 5 -21 11 0 7 7 8 18 4 9 -5 32 -10 50 -13z
m137 -12 c12 -38 -3 -60 -41 -60 -32 0 -34 2 -34 33 0 41 5 47 41 47 19 0 30
-6 34 -20z m-204 -11 c25 -25 21 -40 -15 -57 -24 -12 -30 -12 -47 4 -21 19
-25 60 -6 67 26 11 48 6 68 -14z m2055 -62 c23 -24 46 -55 49 -70 12 -45 -15
-99 -57 -120 -36 -18 -38 -18 -81 1 -71 31 -107 97 -87 157 15 45 54 75 98 75
28 0 43 -9 78 -43z m-2221 15 c0 -18 -20 -15 -23 4 -3 10 1 15 10 12 7 -3 13
-10 13 -16z m276 -32 c12 -7 19 -21 19 -40 0 -28 -2 -30 -39 -30 -34 0 -40 4
-49 29 -10 27 -8 31 16 40 15 5 28 10 30 10 2 1 12 -4 23 -9z m-491 -34 c-14
-14 -22 -2 -14 18 5 14 9 15 15 4 4 -7 4 -17 -1 -22z m560 4 c0 -11 -7 -20
-15 -20 -17 0 -18 2 -9 24 9 23 24 20 24 -4z m-168 -15 c5 -23 2 -25 -28 -25
-30 0 -34 3 -34 25 0 21 5 25 29 25 23 0 30 -5 33 -25z m-267 -63 c-8 -9 -25
20 -18 31 3 5 10 2 15 -7 6 -10 7 -20 3 -24z m-75 -7 c0 -41 -17 -47 -26 -9
-4 17 -2 29 7 35 19 12 19 13 19 -26z m480 8 c5 -5 -29 -33 -41 -33 -14 0 -39
32 -33 41 5 9 62 3 74 -8z m-96 -8 c7 -18 -5 -20 -22 -3 -9 9 -12 9 -12 0 0
-7 -11 -12 -25 -12 -14 0 -25 4 -25 9 0 23 75 28 84 6z m-189 -43 c0 -18 -20
-15 -23 4 -3 10 1 15 10 12 7 -3 13 -10 13 -16z m-95 -17 c0 -20 -21 -30 -31
-14 -13 21 -11 25 11 26 11 1 20 -4 20 -12z m328 -11 c28 -19 31 -74 5 -74
-39 0 -62 13 -68 38 -5 19 -2 30 11 39 22 16 25 16 52 -3z m77 -4 c8 0 19 -9
25 -19 14 -27 13 -30 -7 -29 -10 0 -26 -3 -37 -7 -16 -7 -17 -6 -7 14 7 12 10
32 7 44 -3 12 -3 16 0 10 3 -7 12 -13 19 -13z m-175 -20 c0 -25 -4 -30 -25
-30 -25 0 -51 32 -40 50 3 6 19 10 36 10 26 0 29 -3 29 -30z m-339 -23 c-13
-13 -15 1 -4 30 7 17 8 17 11 -1 2 -10 -1 -23 -7 -29z m215 17 c-3 -9 -6 -18
-6 -20 0 -2 -4 -4 -9 -4 -5 0 -7 9 -4 20 3 11 10 20 15 20 6 0 7 -7 4 -16z
m-132 -42 c-12 -9 -27 -26 -33 -37 -11 -18 -11 -18 -5 5 7 25 31 49 49 49 6 1
0 -7 -11 -17z m267 -32 c24 -14 24 -35 -1 -60 -26 -26 -32 -25 -59 4 l-23 24
21 21 c24 24 34 25 62 11z m124 -25 c0 -24 -5 -31 -24 -33 -27 -4 -51 20 -51
51 0 15 6 18 38 15 34 -3 37 -6 37 -33z m85 -10 c0 -46 -7 -53 -41 -35 -13 8
-19 21 -19 45 0 32 2 35 30 35 29 0 30 -2 30 -45z m-342 -19 c3 -13 -1 -17
-14 -14 -11 2 -20 11 -22 22 -3 13 1 17 14 14 11 -2 20 -11 22 -22z m271 -128
c-15 -29 -63 -24 -78 8 -10 22 -9 31 5 51 9 14 25 28 35 30 10 3 19 10 20 17
0 6 7 -11 14 -38 10 -34 11 -55 4 -68z m-449 98 c0 -2 -7 -9 -15 -16 -13 -11
-14 -10 -9 4 5 14 24 23 24 12z m317 -56 c4 -23 -13 -44 -31 -37 -9 4 -16 18
-16 32 0 22 4 26 22 23 13 -2 24 -10 25 -18z m231 -10 c27 -26 30 -73 5 -68
-13 3 -17 12 -15 29 2 23 -1 25 -28 21 -25 -4 -30 -1 -30 17 0 28 38 28 68 1z
m-342 -34 c-4 -16 -13 -26 -24 -25 -10 0 -12 3 -4 6 6 2 12 19 12 36 0 23 3
28 11 20 7 -7 9 -23 5 -37z m-49 -3 c-3 -10 -5 -4 -5 12 0 17 2 24 5 18 2 -7
2 -21 0 -30z m-67 -9 c0 -8 -4 -14 -10 -14 -5 0 -10 9 -10 21 0 11 5 17 10 14
6 -3 10 -13 10 -21z m244 -40 c10 -4 16 -18 16 -40 0 -28 -5 -35 -25 -40 -36
-9 -55 2 -55 30 0 51 20 67 64 50z m116 -29 c0 -32 -3 -35 -29 -35 -29 0 -41
14 -41 51 0 15 7 19 35 19 33 0 35 -2 35 -35z m70 15 c11 -11 20 -31 20 -45 0
-21 -5 -25 -29 -25 -25 0 -30 5 -35 35 -11 56 8 71 44 35z m-312 -43 c2 -10
-3 -17 -12 -17 -10 0 -16 9 -16 21 0 24 23 21 28 -4z m-124 -21 c-6 -25 -24
-37 -24 -15 0 15 21 52 26 46 3 -3 2 -16 -2 -31z m36 -5 c0 -28 -15 -49 -27
-38 -8 8 7 67 18 67 5 0 9 -13 9 -29z m464 20 c3 -5 0 -11 -8 -14 -15 -6 -26
1 -26 15 0 11 27 10 34 -1z m-576 -44 c2 -15 -1 -27 -6 -27 -17 0 -34 29 -28
46 9 23 31 11 34 -19z m452 -6 c5 -11 10 -36 10 -55 0 -34 -2 -36 -35 -36 -29
0 -37 5 -45 26 -14 35 -13 41 10 64 25 25 46 25 60 1z m140 -32 c0 -10 -4 -19
-10 -19 -5 0 -10 12 -10 26 0 14 4 23 10 19 6 -3 10 -15 10 -26z m-260 -9 c0
-23 -4 -30 -20 -30 -23 0 -35 22 -26 45 3 8 15 15 26 15 16 0 20 -7 20 -30z
m-4885 -10 c19 -36 19 -40 -1 -40 -11 0 -13 6 -9 19 3 11 1 22 -5 26 -5 3 -10
10 -10 16 0 17 9 9 25 -21z m4785 -13 c0 -13 -6 -32 -14 -43 -12 -15 -18 -17
-33 -8 -42 26 -15 107 28 84 10 -6 19 -21 19 -33z m308 21 c-2 -17 -11 -24
-30 -26 -24 -3 -28 0 -28 22 0 22 4 26 31 26 26 0 30 -3 27 -22z m-428 -43 c0
-16 -6 -25 -15 -25 -9 0 -15 9 -15 25 0 16 6 25 15 25 9 0 15 -9 15 -25z m500
15 c0 -5 -7 -10 -15 -10 -8 0 -15 5 -15 10 0 6 7 10 15 10 8 0 15 -4 15 -10z
m-591 -32 c10 -27 9 -35 -7 -50 -38 -39 -83 22 -47 62 26 28 41 25 54 -12z
m524 15 c-7 -2 -19 -2 -25 0 -7 3 -2 5 12 5 14 0 19 -2 13 -5z m-5037 -110
c21 -54 41 -101 42 -105 2 -5 -1 -8 -7 -8 -6 0 -11 9 -11 20 0 11 -5 20 -11
20 -5 0 -8 4 -4 9 3 5 1 12 -5 16 -5 3 -10 15 -10 26 0 10 -4 19 -10 19 -5 0
-10 10 -10 23 0 12 -7 31 -15 41 -17 22 -19 36 -7 36 5 0 26 -44 48 -97z
m4847 45 c18 -38 13 -56 -21 -65 -44 -11 -68 43 -35 79 23 26 38 22 56 -14z
m107 17 c0 -8 3 -14 8 -12 8 2 12 -6 12 -25 0 -6 -3 -8 -7 -5 -3 4 -11 -1 -18
-9 -18 -26 -55 -9 -55 25 0 34 6 41 37 41 14 0 23 -6 23 -15z m100 -18 c0 -18
-5 -38 -12 -45 -9 -9 -8 -12 5 -12 9 0 17 -5 17 -11 0 -6 -14 -9 -32 -7 -31 3
-33 6 -38 51 -4 26 -4 50 -1 52 2 3 17 5 33 5 25 0 28 -3 28 -33z m128 -46 c7
-19 10 -36 7 -39 -9 -9 -45 31 -45 50 0 11 -5 18 -12 15 -7 -2 -12 -13 -10
-25 2 -16 -1 -19 -18 -15 -11 3 -20 11 -20 18 0 8 -3 20 -6 29 -5 12 1 16 24
16 17 0 34 5 37 11 9 13 27 -13 43 -60z m-552 8 c17 -19 17 -23 3 -47 -21 -38
-51 -35 -63 5 -15 55 23 83 60 42z m94 1 c0 -13 -7 -20 -20 -20 -13 0 -20 7
-20 20 0 13 7 20 20 20 13 0 20 -7 20 -20z m-205 -38 c7 -19 -18 -47 -34 -38
-12 8 -15 49 -5 59 9 9 32 -3 39 -21z m431 -29 c22 -30 17 -53 -11 -53 -22 0
-25 4 -25 35 0 38 15 45 36 18z m192 4 c6 -7 14 -32 18 -55 6 -37 4 -42 -12
-42 -11 0 -24 4 -30 8 -14 8 -33 72 -27 90 6 16 38 16 51 -1z m-80 -9 c29 -29
5 -62 -37 -51 -15 4 -21 13 -21 34 0 24 4 29 23 29 13 0 28 -5 35 -12z m-319
-22 c7 -8 11 -30 9 -48 -2 -28 -7 -34 -30 -36 -22 -3 -29 2 -34 23 -13 52 27
95 55 61z m111 -11 c0 -20 -5 -25 -25 -25 -20 0 -25 5 -25 25 0 20 5 25 25 25
20 0 25 -5 25 -25z m354 -1 c10 -27 7 -44 -9 -44 -10 0 -15 10 -15 30 0 32 14
40 24 14z m-668 -39 c23 -35 6 -75 -31 -75 -40 0 -52 49 -22 88 15 19 35 14
53 -13z m97 11 c7 -19 -17 -51 -31 -42 -16 10 -15 43 1 49 20 9 25 8 30 -7z
m381 -15 c8 -12 -20 -22 -40 -14 -15 6 -15 4 -1 -18 9 -13 15 -34 14 -47 -1
-19 -6 -22 -32 -20 -25 3 -30 8 -33 33 -2 24 4 34 30 53 35 23 53 28 62 13z
m43 3 c-3 -3 -12 -4 -19 -1 -8 3 -5 6 6 6 11 1 17 -2 13 -5z m-4920 -189 c62
-151 100 -255 128 -350 13 -44 26 -88 30 -97 4 -10 3 -18 -3 -18 -6 0 -13 15
-17 33 -3 17 -10 41 -15 52 -13 30 -23 59 -24 67 -1 3 -4 10 -8 14 -5 4 -8 15
-8 24 0 8 -9 33 -20 55 -11 22 -20 48 -20 60 -1 29 -28 99 -40 103 -5 2 -10
17 -10 32 0 16 -4 32 -10 35 -13 8 -41 68 -43 93 -1 12 -7 24 -15 27 -7 3 -11
9 -7 14 3 5 1 12 -5 16 -6 4 -7 11 -4 17 8 13 31 -31 91 -177z m4953 140 c17
-51 6 -75 -35 -75 -25 0 -34 5 -39 23 -10 39 -6 66 12 76 32 19 50 12 62 -24z
m133 3 c9 -7 20 -32 26 -56 9 -42 9 -43 -16 -40 -20 2 -29 12 -40 43 -20 57
-7 80 30 53z m-63 -7 c0 -5 3 -16 6 -25 5 -13 -1 -16 -25 -16 -26 0 -31 4 -31
25 0 20 5 25 25 25 14 0 25 -4 25 -9z m-300 -36 c0 -24 -5 -35 -15 -35 -10 0
-15 11 -15 35 0 24 5 35 15 35 10 0 15 -11 15 -35z m-5793 3 c-3 -8 -6 -5 -6
6 -1 11 2 17 5 13 3 -3 4 -12 1 -19z m5688 -8 c8 -24 -1 -40 -21 -40 -17 0
-28 24 -20 45 8 22 34 18 41 -5z m-99 -11 c17 -19 17 -23 3 -47 -20 -36 -46
-40 -60 -8 -9 20 -9 32 -1 51 14 30 33 32 58 4z m-116 -39 c8 -15 6 -21 -10
-30 -26 -14 -40 -5 -40 26 0 30 34 33 50 4z m468 -55 c4 -41 -8 -55 -44 -55
-36 0 -50 80 -17 98 31 18 58 -2 61 -43z m180 43 c7 -7 12 -31 12 -55 0 -41
-1 -43 -30 -43 -25 0 -31 5 -41 40 -9 31 -9 43 1 55 15 18 41 20 58 3z m-90
-35 c3 -31 1 -33 -27 -33 -29 0 -31 3 -31 36 0 33 2 35 28 32 22 -2 28 -8 30
-35z m178 6 c3 -6 0 -16 -7 -21 -11 -7 -11 -11 -1 -15 20 -8 14 -18 -12 -21
-27 -2 -37 15 -29 47 6 22 37 29 49 10z m-392 -15 c12 -31 6 -44 -19 -44 -21
0 -25 5 -25 30 0 23 5 30 19 30 10 0 22 -7 25 -16z m-114 -34 c0 -20 -5 -30
-15 -30 -8 0 -15 3 -15 8 0 4 -3 17 -6 30 -5 18 -2 22 15 22 17 0 21 -6 21
-30z m-202 -22 c15 -33 3 -63 -28 -73 -44 -14 -65 39 -34 83 20 29 45 25 62
-10z m90 4 c3 -17 -2 -22 -17 -22 -16 0 -21 6 -21 26 0 33 33 30 38 -4z m452
8 c0 -5 -2 -10 -4 -10 -3 0 -8 5 -11 10 -3 6 -1 10 4 10 6 0 11 -4 11 -10z m8
-32 c21 -21 15 -86 -8 -98 -33 -18 -58 -3 -66 37 -6 31 -3 39 16 55 26 21 41
23 58 6z m172 -13 c6 -8 14 -32 17 -55 l6 -40 -35 0 c-32 0 -36 3 -42 31 -12
61 -8 79 18 79 13 0 29 -7 36 -15z m-80 -50 c0 -40 4 -57 15 -61 11 -4 15 -21
15 -55 0 -47 -1 -49 -29 -49 -52 0 -61 8 -61 56 0 38 4 46 25 54 35 13 31 24
-7 17 l-33 -6 30 14 c27 13 27 14 8 15 -19 0 -23 6 -23 35 0 32 2 35 30 35 30
0 30 -1 30 -55z m-316 39 c18 -7 23 -79 5 -89 -14 -10 -56 2 -61 17 -3 7 -1
28 4 46 8 32 21 38 52 26z m116 -29 c0 -30 -3 -35 -24 -35 -24 0 -36 16 -36
51 0 14 7 19 30 19 28 0 30 -3 30 -35z m-225 -30 c0 -20 -6 -31 -17 -33 -15
-3 -18 4 -18 33 0 29 3 36 18 33 11 -2 17 -13 17 -33z m-107 -17 c-4 -29 -38
-38 -38 -10 0 22 8 32 27 32 9 0 13 -8 11 -22z m-108 -23 c0 -20 -5 -25 -24
-25 -17 0 -25 7 -28 25 -5 22 -2 25 23 25 24 0 29 -4 29 -25z m444 -11 c18 -7
22 -78 7 -103 -12 -19 -50 -4 -61 25 -11 27 1 69 22 77 7 3 14 6 15 6 1 1 8
-2 17 -5z m116 -39 c0 -32 -2 -35 -30 -35 -28 0 -30 3 -30 35 0 32 2 35 30 35
28 0 30 -3 30 -35z m175 -2 c-7 -44 -9 -47 -30 -40 -9 4 -15 19 -15 42 0 31 3
35 26 35 24 0 25 -2 19 -37z m34 -6 c1 -5 -3 -5 -9 -2 -5 3 -10 16 -9 28 0 21
1 21 9 2 5 -11 9 -24 9 -28z m-523 -11 c11 -45 2 -61 -39 -64 -34 -3 -37 -1
-37 23 0 40 18 65 45 65 18 0 26 -7 31 -24z m98 9 c9 -25 -4 -45 -30 -45 -20
0 -24 5 -24 30 0 25 4 30 24 30 13 0 26 -7 30 -15z m-218 -40 c8 -32 2 -39
-25 -30 -29 9 -29 55 -1 55 13 0 22 -9 26 -25z m-115 -22 c7 -18 4 -20 -24
-19 -32 2 -39 22 -14 38 17 11 29 5 38 -19z m657 0 c-10 -2 -28 -2 -40 0 -13
2 -5 4 17 4 22 1 32 -1 23 -4z m-75 -35 c-3 -16 0 -35 7 -43 11 -13 9 -20 -5
-12 -2 1 -10 -5 -17 -14 -10 -13 -20 -14 -45 -7 -29 7 -33 13 -33 43 0 44 22
66 65 62 31 -2 33 -4 28 -29z m-228 -48 c0 -45 0 -45 -35 -45 -32 0 -35 3 -38
33 -4 42 14 64 47 60 24 -3 26 -7 26 -48z m100 15 c0 -25 -4 -30 -27 -33 -26
-3 -28 -1 -28 33 0 34 2 36 28 33 23 -3 27 -8 27 -33z m-323 -12 c22 -20 23
-41 1 -65 -38 -42 -86 3 -61 57 13 29 34 32 60 8z m106 -16 c3 -23 0 -27 -22
-27 -21 0 -26 5 -26 23 0 13 3 27 7 31 15 14 38 0 41 -27z m-224 -5 c10 -17
-7 -52 -25 -52 -24 0 -32 16 -19 40 11 20 35 27 44 12z m-127 -64 c-3 -7 -5
-2 -5 12 0 14 2 19 5 13 2 -7 2 -19 0 -25z m889 -27 c1 -29 6 -56 13 -60 6 -4
14 -28 17 -53 6 -41 4 -47 -16 -58 -27 -14 -69 3 -71 29 -1 14 -2 14 -5 1 -6
-20 -92 -14 -116 8 -17 14 -18 13 -18 -6 0 -17 -6 -22 -25 -22 -26 0 -29 9
-19 48 6 22 44 32 44 11 0 -6 7 -3 16 6 9 8 13 22 10 30 -3 9 -3 36 1 60 5 39
9 45 30 45 15 0 22 4 17 11 -4 7 13 10 57 7 l64 -3 1 -54z m-316 39 c24 -13
36 -66 20 -85 -7 -8 -26 -15 -41 -15 -22 0 -32 6 -39 26 -13 34 -13 37 10 62
24 25 25 25 50 12z m120 -35 c0 -32 -2 -35 -30 -35 -28 0 -30 3 -30 35 0 32 2
35 30 35 28 0 30 -3 30 -35z m-4850 -1 c0 -8 -5 -12 -10 -9 -6 4 -8 11 -5 16
9 14 15 11 15 -7z m4522 -1 c22 -20 23 -51 1 -75 -20 -22 -37 -23 -57 -2 -22
21 -20 50 4 74 24 24 28 25 52 3z m108 -23 c0 -25 -4 -30 -25 -30 -21 0 -25 5
-25 30 0 25 4 30 25 30 21 0 25 -5 25 -30z m-339 0 c29 -16 26 -73 -6 -90 -20
-11 -27 -11 -40 0 -20 16 -19 59 2 82 19 21 19 21 44 8z m119 -26 c0 -19 -5
-24 -25 -24 -20 0 -25 5 -25 23 0 30 6 36 31 30 12 -3 19 -14 19 -29z m728
-72 c-4 -36 -35 -42 -44 -8 -10 40 1 59 26 46 15 -8 20 -19 18 -38z m-492 -7
c31 -48 -16 -106 -56 -70 -24 22 -26 58 -4 79 22 23 41 20 60 -9z m104 -10 c0
-30 -3 -35 -24 -35 -16 0 -26 7 -30 23 -10 37 -12 35 47 46 4 0 7 -15 7 -34z
m-322 -7 c7 -7 12 -24 12 -38 0 -34 -17 -50 -52 -50 -21 0 -29 6 -34 26 -14
55 38 98 74 62z m102 -18 c0 -25 -4 -30 -25 -30 -21 0 -25 5 -25 30 0 25 4 30
25 30 21 0 25 -5 25 -30z m-222 -28 c3 -30 1 -33 -19 -30 -15 2 -25 12 -30 30
-8 31 -2 40 26 36 15 -2 21 -12 23 -36z m792 7 c0 -6 12 -9 27 -7 25 3 28 -1
33 -33 4 -20 3 -46 -1 -58 -7 -18 -12 -19 -36 -10 -23 8 -26 8 -15 -2 6 -7 12
-17 12 -21 0 -4 -6 -8 -12 -8 -9 0 -13 -18 -13 -55 0 -52 6 -67 20 -45 12 19
26 10 20 -11 -6 -18 -4 -20 13 -15 29 10 52 -19 52 -65 0 -36 -2 -39 -29 -39
-16 0 -31 -6 -34 -12 -3 -10 -8 -10 -18 1 -11 10 -11 15 -1 18 7 3 12 22 12
44 0 24 -4 38 -10 34 -5 -3 -10 -19 -10 -36 0 -27 -3 -29 -35 -29 -34 0 -35 1
-35 41 0 57 -23 46 -30 -14 -7 -60 -21 -74 -57 -61 -22 7 -29 16 -31 45 -2 28
3 40 28 62 37 34 38 45 3 49 -25 3 -28 7 -28 38 0 30 3 35 26 38 16 2 29 11
32 22 4 16 1 17 -19 10 -33 -13 -52 -3 -59 31 -9 38 1 67 26 74 32 10 56 -4
64 -38 l8 -32 5 30 c2 16 -1 31 -7 33 -16 5 -13 22 4 22 8 0 15 -4 15 -10 0
-5 11 -10 25 -10 16 0 25 6 25 15 0 8 7 15 15 15 8 0 15 -5 15 -11z m-230 -44
c0 -8 6 -15 13 -15 8 0 8 -3 1 -8 -6 -4 -13 -15 -17 -24 -4 -11 -17 -18 -32
-18 -22 0 -25 4 -25 33 0 40 6 47 37 47 14 0 23 -6 23 -15z m-120 -45 c0 -33
-4 -40 -19 -40 -13 0 -20 9 -24 33 -6 39 -2 47 24 47 16 0 19 -7 19 -40z
m-212 22 c7 -5 15 -25 19 -45 5 -32 2 -38 -20 -48 -35 -16 -54 -6 -62 30 -11
52 24 87 63 63z m116 -17 c9 -25 -4 -45 -30 -45 -13 0 -24 3 -24 8 0 4 -3 17
-6 30 -6 19 -3 22 24 22 17 0 32 -6 36 -15z m-326 -17 c20 -20 14 -55 -14 -77
-30 -24 -52 -18 -60 16 -14 54 38 97 74 61z m102 -18 c0 -25 -4 -30 -25 -30
-21 0 -25 5 -25 30 0 25 4 30 25 30 21 0 25 -5 25 -30z m448 -42 c13 -13 16
-56 6 -82 -4 -10 -18 -16 -40 -16 -34 0 -34 1 -34 45 0 31 5 47 18 54 23 14
36 13 50 -1z m292 -23 c0 -31 -3 -35 -25 -35 -22 0 -25 4 -25 35 0 31 3 35 25
35 22 0 25 -4 25 -35z m-402 -32 c3 -31 1 -33 -27 -33 -27 0 -31 3 -31 28 0
35 8 44 35 40 15 -2 21 -12 23 -35z m-107 11 c15 -19 2 -47 -26 -52 -25 -5
-38 13 -31 42 7 30 36 35 57 10z m-211 -13 c15 -30 12 -56 -9 -75 -27 -25 -58
-13 -66 25 -12 54 50 95 75 50z m100 -21 c0 -25 -4 -30 -25 -30 -21 0 -25 5
-25 30 0 25 4 30 25 30 21 0 25 -5 25 -30z m-216 -16 c9 -33 -4 -47 -35 -42
-19 2 -25 10 -27 36 -3 30 -1 32 26 32 24 0 31 -5 36 -26z m460 -60 c14 -35 6
-64 -20 -76 -44 -21 -74 13 -60 68 5 19 13 24 40 24 22 0 36 -6 40 -16z m96
-19 c0 -32 -2 -35 -30 -35 -28 0 -30 3 -30 35 0 32 2 35 30 35 28 0 30 -3 30
-35z m-222 -9 c6 -29 -5 -45 -27 -39 -14 3 -21 14 -21 28 0 36 42 45 48 11z
m-311 -35 c7 -29 -15 -74 -40 -79 -42 -8 -63 61 -32 105 14 19 19 21 41 11 13
-6 27 -23 31 -37z m196 41 c9 -14 -5 -62 -19 -62 -15 0 -29 43 -19 59 7 13 32
15 38 3z m-103 -42 c0 -25 -4 -30 -25 -30 -21 0 -25 5 -25 30 0 25 4 30 25 30
21 0 25 -5 25 -30z m657 -18 c16 -10 26 -56 18 -81 -5 -17 -15 -21 -46 -21
-35 0 -39 3 -39 25 0 14 -6 25 -12 26 -10 0 -10 2 0 6 6 2 12 11 12 19 0 8 10
19 23 24 28 11 30 11 44 2z m93 -48 c0 -19 -4 -34 -8 -34 -13 0 -39 32 -46 56
-6 18 -3 20 24 16 27 -4 30 -8 30 -38z m-285 -8 c8 -33 6 -40 -10 -52 -25 -19
-61 -18 -69 2 -12 31 -6 73 12 83 33 20 56 9 67 -33z m95 4 c0 -31 -4 -40 -17
-40 -29 0 -42 14 -49 48 -6 31 -6 32 30 32 35 0 36 -1 36 -40z m-316 -23 c13
-37 -19 -73 -58 -63 -21 5 -26 12 -26 39 0 40 17 59 50 55 17 -2 28 -12 34
-31z m96 4 c0 -21 -6 -30 -22 -34 -28 -8 -38 -1 -38 27 0 29 7 36 37 36 19 0
23 -5 23 -29z m-215 -22 c9 -26 -2 -39 -31 -39 -20 0 -24 5 -24 28 0 16 3 31
6 34 10 11 43 -4 49 -23z m-115 -14 c0 -23 -6 -38 -15 -42 -21 -7 -25 -2 -32
41 -5 34 -4 36 21 36 23 0 26 -4 26 -35z m-116 9 c31 -30 13 -69 -27 -58 -41
10 -37 68 5 73 4 1 14 -6 22 -15z m-84 -18 c0 -2 3 -11 6 -20 4 -11 0 -16 -14
-16 -23 0 -36 15 -27 30 6 10 35 14 35 6z m764 -32 c26 -25 20 -72 -10 -86
-31 -15 -55 -2 -68 35 -18 49 42 88 78 51z m104 -30 c-2 -23 -9 -30 -30 -32
-22 -3 -28 1 -28 17 0 10 -3 26 -6 34 -4 11 2 17 23 19 37 5 45 -3 41 -38z
m82 11 c0 -14 -4 -25 -10 -25 -5 0 -10 11 -10 25 0 14 5 25 10 25 6 0 10 -11
10 -25z m-398 -23 c12 -44 -5 -72 -41 -72 -31 0 -41 14 -41 60 0 57 68 67 82
12z m98 3 c0 -32 -2 -35 -30 -35 -26 0 -30 4 -30 28 0 35 6 42 37 42 20 0 23
-5 23 -35z m-325 -45 c0 -45 0 -45 -35 -45 -32 0 -35 3 -38 33 -4 42 14 64 47
60 24 -3 26 -7 26 -48z m105 14 c0 -33 -2 -35 -27 -32 -47 5 -45 68 2 68 22 0
25 -4 25 -36z m-220 -19 c0 -31 -3 -35 -25 -35 -22 0 -25 4 -25 35 0 31 3 35
25 35 22 0 25 -4 25 -35z m-110 -16 c0 -26 -3 -30 -22 -27 -17 2 -24 11 -26
31 -3 23 0 27 22 27 22 0 26 -4 26 -31z m-60 1 c0 -5 -2 -10 -4 -10 -3 0 -8 5
-11 10 -3 6 -1 10 4 10 6 0 11 -4 11 -10z m-45 -20 c3 -5 2 -10 -4 -10 -5 0
-13 5 -16 10 -3 6 -2 10 4 10 5 0 13 -4 16 -10z m968 -26 c2 -13 0 -27 -4 -30
-16 -10 -29 7 -29 36 0 36 26 31 33 -6z m-289 -6 c15 -42 -9 -80 -48 -76 -25
2 -32 9 -40 36 -7 26 -5 36 10 53 26 28 66 22 78 -13z m101 21 c4 -5 4 -21 1
-35 -5 -19 -13 -24 -36 -24 -26 0 -30 4 -30 28 0 16 3 32 7 35 10 11 51 8 58
-4z m85 -29 c0 -31 -3 -38 -15 -34 -8 4 -15 11 -16 18 0 6 -4 2 -9 -9 -7 -17
-9 -16 -9 11 -1 31 14 54 36 54 8 0 13 -14 13 -40z m-807 6 c3 -8 3 -17 0 -20
-7 -7 -33 13 -33 25 0 15 27 10 33 -5z m393 -12 c13 -19 15 -32 8 -52 -8 -22
-16 -27 -44 -27 -34 0 -35 2 -38 40 -3 29 1 43 14 52 26 19 42 16 60 -13z
m104 -13 c0 -21 -6 -30 -22 -34 -30 -8 -38 -1 -38 34 0 26 3 29 30 29 26 0 30
-3 30 -29z m-322 -3 c17 -17 15 -63 -2 -77 -8 -7 -27 -11 -43 -9 -24 3 -28 8
-31 38 -5 49 44 80 76 48z m102 -18 c0 -27 -3 -30 -30 -30 -25 0 -30 4 -30 23
0 30 7 37 37 37 19 0 23 -5 23 -30z m-216 -12 c11 -42 7 -48 -29 -48 -32 0
-35 3 -35 28 0 34 6 42 36 42 14 0 24 -8 28 -22z m-79 -66 c-7 -7 -45 29 -45
41 0 6 11 0 25 -13 14 -13 23 -26 20 -28z m939 17 c9 -47 7 -59 -9 -59 -11 0
-15 12 -15 45 0 52 14 60 24 14z m-96 9 c19 -19 14 -56 -8 -63 -28 -9 -40 2
-40 34 0 41 22 55 48 29z m-98 -21 c0 -13 -6 -32 -14 -43 -12 -15 -18 -17 -33
-8 -22 14 -29 54 -11 65 7 5 23 9 36 9 16 0 22 -6 22 -23z m-218 -4 c31 -28
16 -93 -22 -93 -38 0 -50 11 -50 49 0 58 34 79 72 44z m108 -23 c0 -25 -4 -30
-24 -30 -23 0 -36 16 -36 46 0 9 11 14 30 14 27 0 30 -3 30 -30z m-328 3 c24
-21 23 -65 -2 -88 -50 -45 -105 32 -58 82 26 27 35 28 60 6z m108 -12 c16 -31
12 -41 -19 -41 -21 0 -30 6 -34 22 -3 12 -4 25 -1 30 10 15 43 8 54 -11z
m-318 -26 c26 -57 -27 -108 -75 -72 -17 11 -18 18 -8 55 11 37 15 42 42 42 22
0 32 -6 41 -25z m98 -10 c0 -31 -3 -35 -25 -35 -18 0 -26 7 -31 24 -8 32 2 46
32 46 21 0 24 -5 24 -35z m-210 -30 c0 -8 -4 -15 -9 -15 -5 0 -14 7 -21 15
-10 13 -9 15 9 15 12 0 21 -6 21 -15z m880 -39 c0 -48 -17 -64 -51 -46 -13 7
-19 21 -19 44 0 40 5 46 42 46 26 0 28 -2 28 -44z m-110 -1 c0 -30 -3 -35 -24
-35 -26 0 -40 23 -31 51 4 12 16 19 31 19 21 0 24 -5 24 -35z m190 4 c0 -10
-4 -19 -10 -19 -5 0 -10 12 -10 26 0 14 4 23 10 19 6 -3 10 -15 10 -26z m-300
-13 c0 -22 -6 -36 -16 -40 -34 -13 -44 -6 -44 27 0 40 6 47 37 47 20 0 23 -5
23 -34z m-214 7 c19 -26 17 -57 -5 -77 -26 -23 -52 -17 -70 16 -15 25 -14 29
8 52 29 30 49 33 67 9z m104 -18 c0 -31 -3 -35 -25 -35 -22 0 -25 4 -25 35 0
31 3 35 25 35 22 0 25 -4 25 -35z m-320 -16 c16 -29 11 -57 -12 -73 -28 -20
-43 -20 -62 0 -23 22 -20 51 8 79 27 27 50 25 66 -6z m105 -8 c0 -28 -25 -47
-49 -38 -19 7 -22 53 -3 61 28 11 52 1 52 -23z m-221 -7 c12 -31 6 -54 -14
-55 -11 -1 -25 -2 -32 -3 -16 -1 -27 46 -15 62 13 17 54 15 61 -4z m-96 -26
c19 -19 14 -28 -13 -28 -18 0 -25 5 -25 20 0 22 20 26 38 8z m773 -32 c7 -14
9 -36 5 -50 -6 -23 -12 -26 -46 -26 -40 0 -40 0 -40 38 0 21 5 43 12 50 21 21
57 14 69 -12z m189 -28 c0 -51 -5 -47 -13 10 -3 24 -1 40 4 36 5 -3 9 -24 9
-46z m-100 7 c0 -37 -22 -49 -34 -19 -12 32 -6 54 14 54 16 0 20 -7 20 -35z
m-202 -12 c3 -32 2 -33 -32 -33 -33 0 -36 3 -36 28 0 36 8 44 40 40 20 -2 26
-9 28 -35z m-115 13 c3 -8 3 -24 0 -36 -7 -27 -56 -25 -61 3 -7 37 48 66 61
33z m-518 -5 c3 -5 1 -12 -5 -16 -5 -3 -10 1 -10 9 0 18 6 21 15 7z m291 1
c17 -11 26 -47 18 -76 -5 -22 -12 -26 -45 -26 l-39 0 0 45 c0 53 31 80 66 57z
m-131 -14 c28 -13 44 -53 27 -70 -6 -6 -22 -8 -37 -4 -21 5 -26 12 -23 34 2
15 -3 32 -12 39 -13 11 -13 12 2 13 9 0 29 -5 43 -12z m243 -20 c-5 -57 -57
-48 -58 10 0 18 5 22 31 22 28 0 30 -2 27 -32z m-330 6 c28 -19 29 -64 3 -88
-22 -20 -50 -15 -76 14 -16 18 -16 21 5 55 24 39 35 42 68 19z m776 -60 c16
-6 21 -39 10 -68 -4 -10 -18 -16 -35 -16 -27 0 -29 3 -29 38 0 51 13 62 54 46z
m-206 -16 c25 -25 2 -98 -31 -98 -21 0 -47 34 -47 60 0 31 17 50 45 50 12 0
26 -5 33 -12z m90 6 c19 -5 23 -12 20 -38 -2 -25 -7 -31 -28 -31 -19 0 -25 6
-31 32 -9 43 -4 48 39 37z m208 -41 c-11 -11 -19 6 -11 24 8 17 8 17 12 0 3
-10 2 -21 -1 -24z m-408 -2 c4 -25 -19 -51 -44 -51 -17 0 -27 35 -19 61 10 30
59 23 63 -10z m-519 -7 c3 -16 1 -17 -13 -5 -19 16 -21 34 -3 29 6 -3 14 -13
16 -24z m183 -1 c27 -32 28 -60 2 -84 -50 -47 -108 19 -66 76 20 29 43 31 64
8z m218 -13 c0 -27 -3 -30 -30 -30 -27 0 -30 3 -30 30 0 27 3 30 30 30 27 0
30 -3 30 -30z m-108 -3 c7 -34 -1 -47 -28 -47 -17 0 -25 7 -30 24 -8 32 2 46
30 46 17 0 25 -7 28 -23z m-217 -16 c9 -31 -5 -51 -36 -51 -26 0 -29 3 -29 35
0 32 2 35 29 35 20 0 32 -6 36 -19z m-96 -15 c15 -18 3 -46 -20 -46 -13 0 -19
7 -19 23 0 37 18 48 39 23z m765 -32 c20 -19 21 -68 2 -84 -44 -36 -95 25 -62
74 19 30 38 33 60 10z m-214 -23 c14 -26 13 -64 -2 -79 -17 -17 -65 -15 -72 4
-11 28 -6 62 10 78 21 22 51 20 64 -3z m95 -21 c0 -28 -4 -35 -20 -35 -13 0
-21 8 -23 23 -5 34 5 54 25 50 13 -2 18 -13 18 -38z m215 31 c0 -5 3 -16 6
-25 4 -12 0 -16 -15 -16 -16 0 -21 6 -21 25 0 16 6 25 15 25 8 0 15 -4 15 -9z
m-436 -17 c10 -4 16 -18 16 -35 0 -25 -4 -29 -29 -29 -35 0 -51 37 -24 58 20
14 17 14 37 6z m-108 -29 c8 -31 0 -53 -21 -62 -26 -9 -38 12 -31 51 8 44 42
51 52 11z m-212 -7 c39 -56 -6 -116 -68 -92 -24 9 -20 63 6 91 27 29 43 29 62
1z m109 -9 c9 -33 -3 -49 -34 -49 -26 0 -29 3 -29 35 0 32 3 35 29 35 21 0 30
-6 34 -21z m-226 -51 c-3 -8 -6 -5 -6 6 -1 11 2 17 5 13 3 -3 4 -12 1 -19z
m683 -23 c20 -22 21 -27 10 -54 -14 -35 -41 -47 -70 -31 -38 20 -19 110 24
110 7 0 23 -11 36 -25z m218 -14 c4 -42 -9 -57 -38 -41 -17 9 -19 14 -9 26 10
12 14 12 20 2 6 -9 9 -4 9 15 0 33 -12 35 -33 5 -12 -17 -16 -19 -16 -7 -1 22
21 40 44 37 15 -2 21 -12 23 -37z m-322 13 c-3 -9 -6 -29 -6 -45 0 -27 -3 -29
-35 -29 -34 0 -35 1 -35 39 0 36 3 40 28 44 52 8 54 7 48 -9z m-124 -6 c38
-31 20 -98 -26 -98 -47 0 -62 54 -26 90 23 23 31 24 52 8z m326 -15 c-2 -20
-9 -28 -23 -28 -14 0 -21 8 -23 28 -3 23 0 27 23 27 23 0 26 -4 23 -27z m199
5 c-3 -8 -6 -5 -6 6 -1 11 2 17 5 13 3 -3 4 -12 1 -19z m-643 -17 c23 -26 6
-61 -29 -61 -22 0 -25 5 -25 34 0 30 8 42 31 45 3 1 14 -8 23 -18z m-274 2 c0
-5 -5 -15 -10 -23 -9 -13 -11 -13 -20 0 -15 22 -12 30 10 30 11 0 20 -3 20 -7z
m178 -35 c3 -21 -1 -28 -14 -28 -9 0 -23 -8 -31 -17 -8 -10 -12 -12 -8 -5 4 7
0 12 -9 12 -11 0 -16 9 -16 29 0 32 12 41 50 38 19 -2 26 -8 28 -29z m-110
-15 c3 -32 2 -33 -32 -33 -35 0 -36 1 -36 36 0 34 1 35 33 32 28 -3 32 -7 35
-35z m-93 -3 c8 -26 -1 -40 -26 -40 -14 0 -19 7 -19 30 0 23 5 30 19 30 11 0
22 -9 26 -20z m765 -45 c15 -40 -3 -75 -40 -75 -28 0 -30 2 -30 40 0 58 51 84
70 35z m-220 -5 c11 -11 20 -30 20 -42 0 -27 -27 -58 -51 -58 -16 0 -59 43
-59 60 0 15 42 60 56 60 8 0 23 -9 34 -20z m310 -16 c0 -14 -4 -22 -10 -19 -5
3 -10 17 -10 31 0 14 4 22 10 19 6 -3 10 -17 10 -31z m-202 -11 c3 -31 1 -33
-27 -33 -29 0 -31 3 -31 36 0 33 2 35 28 32 22 -2 28 -8 30 -35z m-320 -27 c2
-15 -2 -34 -9 -42 -12 -15 -79 -20 -79 -5 0 4 -19 6 -41 4 -47 -6 -59 5 -59
51 0 28 1 28 43 22 30 -5 52 -2 72 8 25 13 33 13 50 2 11 -7 21 -25 23 -40z
m-211 -3 c7 -6 13 -23 13 -37 0 -19 -5 -26 -20 -26 -15 0 -20 -7 -20 -25 0
-16 6 -25 15 -25 8 0 15 -6 15 -12 0 -7 7 -2 16 10 36 52 124 -2 94 -58 -8
-15 -7 -27 5 -49 l15 -30 24 24 c29 29 51 24 71 -16 19 -36 19 -58 0 -65 -13
-5 -13 -8 0 -21 8 -8 15 -21 15 -29 0 -21 23 -17 38 6 19 31 50 25 69 -14 15
-32 15 -37 0 -59 -25 -38 -90 -42 -93 -5 0 7 -2 21 -2 31 -3 28 -22 19 -28
-13 -5 -24 -10 -29 -28 -24 -18 4 -21 1 -21 -25 0 -24 3 -28 17 -20 27 15 37
11 57 -21 10 -16 21 -27 24 -23 4 3 7 -1 7 -10 0 -33 23 -65 50 -71 27 -5 29
-8 33 -73 3 -37 9 -85 12 -105 8 -40 4 -43 -50 -40 -11 0 -14 -2 -7 -4 6 -3
12 -14 12 -25 0 -22 -38 -26 -72 -8 -15 8 -27 8 -45 0 -22 -10 -25 -8 -40 26
-15 36 -16 37 -24 16 -6 -16 -17 -23 -34 -23 -24 0 -26 3 -23 38 3 35 5 37 40
40 32 3 37 6 34 25 -1 12 -6 21 -9 20 -4 -2 -12 -3 -18 -3 -5 0 -8 -4 -5 -8 8
-13 -52 -1 -62 12 -5 6 -13 21 -16 33 -10 30 49 93 87 93 21 0 24 4 19 22 -3
12 -7 17 -10 10 -2 -7 -22 -12 -49 -12 l-44 0 2 52 c2 33 -1 53 -9 56 -20 6
-26 71 -9 90 15 16 15 18 -3 18 -15 0 -21 -9 -26 -36 -9 -56 -12 -60 -39 -60
-19 0 -28 7 -36 27 -6 15 -15 31 -21 34 -6 4 -8 15 -4 25 5 13 9 15 18 6 15
-15 42 -16 33 -2 -3 6 0 11 7 11 7 1 -3 5 -22 8 -20 4 -39 2 -43 -4 -5 -6 -6
-2 -3 8 3 10 6 32 6 48 0 36 46 85 65 69 9 -8 12 -4 11 12 -1 18 -8 24 -33 26
-30 3 -33 6 -33 37 0 18 6 35 13 38 10 4 10 7 0 18 -10 9 -13 10 -13 1 0 -7
-8 -12 -19 -12 -15 0 -18 7 -16 40 1 22 -2 40 -7 40 -5 0 8 16 27 36 40 39 35
40 92 -13z m298 12 c0 -23 -5 -31 -21 -33 -16 -2 -23 4 -28 23 -8 33 0 47 27
43 17 -2 22 -10 22 -33z m-424 -67 c11 -21 11 -22 -4 -9 -10 7 -17 17 -17 22
0 15 9 10 21 -13z m673 -20 c20 -29 20 -47 -1 -70 -23 -25 -48 -23 -72 8 l-21
26 23 29 c27 34 51 36 71 7z m-232 -5 c18 -16 24 -57 12 -87 -9 -24 -71 -21
-84 3 -15 30 -12 52 12 78 26 27 35 28 60 6z m332 -9 c10 -26 7 -34 -13 -34
-18 0 -35 33 -23 44 11 11 30 6 36 -10z m216 -6 c0 -13 -23 -5 -28 10 -2 7 2
10 12 6 9 -3 16 -11 16 -16z m-432 -15 c-2 -21 -9 -29 -27 -31 -27 -4 -41 12
-34 39 4 13 14 19 35 19 26 0 29 -3 26 -27z m-222 -8 c9 -38 -2 -55 -36 -55
-27 0 -30 3 -30 33 0 40 6 47 36 47 17 0 25 -7 30 -25z m-314 -45 c-2 -7 7
-23 19 -36 22 -23 22 -24 3 -24 -21 0 -59 62 -46 74 9 10 27 0 24 -14z m553
-50 c16 -18 17 -25 6 -60 -13 -42 -33 -51 -72 -30 -39 21 -14 110 31 110 9 0
25 -9 35 -20z m98 -12 c14 -21 2 -48 -22 -48 -22 0 -35 38 -19 57 13 16 28 13
41 -9z m-232 2 c15 0 19 -7 19 -35 0 -30 -3 -35 -24 -35 -29 0 -41 15 -41 53
0 19 4 26 13 22 8 -3 22 -5 33 -5z m449 -6 c0 -17 -22 -14 -28 4 -2 7 3 12 12
12 9 0 16 -7 16 -16z m-860 -54 c0 -5 -2 -10 -4 -10 -3 0 -8 5 -11 10 -3 6 -1
10 4 10 6 0 11 -4 11 -10z m-16 -31 c-8 -13 -24 -1 -24 18 0 13 3 13 15 3 8
-7 12 -16 9 -21z m636 -33 c0 -8 -4 -18 -10 -21 -5 -3 -10 3 -10 14 0 12 5 21
10 21 6 0 10 -6 10 -14z m28 -21 c-1 -22 -6 -35 -15 -35 -16 0 -16 10 -3 44
13 36 20 32 18 -9z m229 13 c-3 -8 -6 -5 -6 6 -1 11 2 17 5 13 3 -3 4 -12 1
-19z m96 2 c3 -11 1 -20 -4 -20 -5 0 -9 9 -9 20 0 11 2 20 4 20 2 0 6 -9 9
-20z m-423 -25 c0 -30 -3 -35 -24 -35 -24 0 -36 16 -36 51 0 14 7 19 30 19 28
0 30 -3 30 -35z m204 19 c4 -9 4 -19 2 -22 -10 -9 -36 8 -36 23 0 20 26 19 34
-1z m125 -40 c3 -16 1 -17 -13 -5 -19 16 -21 34 -3 29 6 -3 14 -13 16 -24z
m-873 -19 c19 -30 14 -40 -15 -30 -14 4 -21 15 -21 31 0 31 15 31 36 -1z m984
-75 c0 -22 -4 -40 -8 -40 -4 0 -9 18 -10 40 -2 23 2 40 8 40 5 0 10 -18 10
-40z m-447 -24 c-1 -48 -12 -72 -20 -48 -3 6 -11 12 -18 12 -13 0 -25 21 -25
46 0 8 7 14 15 14 8 0 15 7 15 16 0 9 7 14 18 12 14 -3 17 -13 15 -52z m125
11 c4 -20 -25 -34 -40 -19 -15 15 -1 44 19 40 10 -2 19 -11 21 -21z m212 8 c0
-8 -4 -15 -10 -15 -5 0 -10 7 -10 15 0 8 5 15 10 15 6 0 10 -7 10 -15z m-752
-28 c12 -24 11 -31 -2 -52 -23 -36 -53 -41 -82 -14 -29 28 -30 39 -3 73 28 36
68 32 87 -7z m317 -2 c0 -25 -4 -30 -27 -33 -18 -2 -28 1 -28 10 0 7 -3 23 -6
36 -6 22 -4 23 27 20 30 -3 34 -6 34 -33z m332 -12 c-3 -3 -11 -2 -17 2 -8 5
-7 11 2 22 12 15 13 14 16 -1 2 -10 1 -20 -1 -23z m-787 -14 c0 -11 -4 -17
-10 -14 -5 3 -10 13 -10 21 0 8 5 14 10 14 6 0 10 -9 10 -21z m920 -71 c0 -13
-4 -29 -9 -37 -13 -20 -51 4 -50 32 l0 22 9 -22 c11 -27 40 -21 40 8 0 10 2
19 5 19 3 0 5 -10 5 -22z m-344 -12 c7 -30 -1 -46 -26 -46 -18 0 -36 42 -25
60 12 20 45 10 51 -14z m122 -8 c-2 -25 -8 -34 -24 -36 -16 -2 -23 3 -26 20
-7 35 1 48 28 48 22 0 25 -4 22 -32z m317 22 c3 -5 -1 -10 -9 -10 -9 0 -16 5
-16 10 0 6 4 10 9 10 6 0 13 -4 16 -10z m-225 -21 c0 -11 -4 -17 -10 -14 -5 3
-10 13 -10 21 0 8 5 14 10 14 6 0 10 -9 10 -21z m-658 -14 c14 -30 -3 -55 -38
-55 -20 0 -24 5 -24 28 0 52 42 70 62 27z m-92 -30 c0 -28 -25 -44 -42 -27
-15 15 1 52 23 52 14 0 19 -7 19 -25z m548 -57 c17 -17 15 -63 -2 -78 -8 -6
-25 -10 -38 -8 -18 2 -24 10 -26 34 -5 48 37 81 66 52z m326 -14 c11 -28 6
-39 -9 -20 -8 11 -15 23 -15 28 0 14 18 9 24 -8z m-767 -16 c28 -26 29 -48 5
-78 -16 -19 -24 -22 -55 -16 -31 6 -37 11 -37 31 0 14 -4 25 -10 25 -5 0 -10
-4 -10 -10 0 -5 -9 -10 -20 -10 -11 0 -20 7 -20 15 0 9 9 15 25 15 14 0 34 11
47 25 27 31 45 31 75 3z m539 -16 c-9 -8 -26 10 -26 26 1 15 2 15 15 -2 8 -11
13 -21 11 -24z m-806 -122 c0 -3 -9 10 -20 28 -11 18 -20 45 -20 60 1 20 5 13
20 -28 11 -30 19 -57 20 -60z m517 25 c18 -13 22 -13 33 0 18 21 57 19 70 -4
28 -53 -6 -97 -67 -87 -21 3 -54 7 -73 8 -32 3 -35 6 -38 38 -5 52 32 75 75
45z m311 -23 c3 -29 1 -32 -23 -32 -24 0 -25 1 -11 16 18 18 21 34 5 34 -5 0
-7 5 -4 11 12 19 30 3 33 -29z m-430 -31 l3 -42 -43 3 c-41 3 -43 4 -46 39 -2
29 1 37 20 46 39 18 63 1 66 -46z m317 19 c0 -36 -29 -33 -33 3 -3 23 0 28 15
25 12 -2 18 -12 18 -28z m223 12 c2 -7 -3 -12 -12 -12 -9 0 -16 7 -16 16 0 17
22 14 28 -4z m-758 -21 c14 -27 13 -37 -6 -55 -29 -30 -44 -20 -44 29 0 38 3
45 20 45 10 0 24 -9 30 -19z m98 -13 c3 -26 1 -28 -32 -28 -31 0 -36 3 -36 23
0 31 9 39 40 35 19 -2 26 -10 28 -30z m-212 -110 c7 -21 10 -36 5 -34 -12 8
-57 105 -64 141 -5 23 -1 19 19 -19 14 -27 32 -67 40 -88z m674 -14 c0 -35 -6
-39 -47 -28 -28 8 -31 48 -6 83 l16 24 19 -23 c10 -12 18 -37 18 -56z m214 60
c3 -9 6 -29 6 -45 0 -31 -25 -40 -48 -17 -15 15 -16 48 -2 48 6 0 10 -8 8 -17
-2 -10 4 -19 15 -21 20 -4 24 37 5 56 -8 8 -8 12 -1 12 6 0 14 -7 17 -16z
m-674 -64 c-4 -8 -5 -20 -3 -26 2 -8 -13 -13 -42 -16 -26 -2 -48 -2 -50 0 -9
9 20 64 42 82 l25 20 18 -23 c11 -13 15 -28 10 -37z m118 15 c2 -44 1 -45 -28
-45 -26 0 -30 4 -30 27 0 28 25 63 45 63 7 0 12 -18 13 -45z m120 32 c24 -28
24 -64 1 -86 -16 -15 -18 -21 -8 -21 11 0 15 -14 17 -51 l2 -50 -32 3 c-29 3
-33 7 -33 33 0 23 5 30 25 35 l25 6 -24 9 c-27 8 -57 39 -67 68 -13 41 67 87
94 54z m537 -5 c0 -18 -20 -15 -23 4 -3 10 1 15 10 12 7 -3 13 -10 13 -16z
m-432 -19 c3 -16 3 -31 0 -35 -7 -13 -53 -9 -53 5 0 6 -3 22 -6 35 -6 19 -3
22 24 22 24 0 31 -5 35 -27z m199 2 c3 -14 1 -25 -3 -25 -5 0 -9 11 -9 25 0
14 2 25 4 25 2 0 6 -11 8 -25z m-4576 -73 c1 -37 0 -53 -3 -37 -2 17 -8 47
-13 68 -5 26 -4 37 4 37 7 0 11 -24 12 -68z m3924 32 c0 -8 -9 -14 -20 -14
-22 0 -28 26 -7 33 16 6 27 -1 27 -19z m70 -49 c10 -13 9 -15 -9 -15 -12 0
-21 6 -21 15 0 8 4 15 9 15 5 0 14 -7 21 -15z m394 -14 c39 -42 -8 -116 -56
-90 -38 20 -35 78 4 97 31 15 33 15 52 -7z m-216 -13 c6 -6 12 -25 12 -42 0
-25 -7 -36 -30 -49 -34 -21 -44 -17 -64 22 -13 25 -13 31 5 60 16 26 24 31 42
25 12 -3 28 -11 35 -16z m542 -15 c0 -7 -4 -13 -9 -13 -10 0 -21 36 -13 45 7
7 22 -15 22 -32z m-761 -43 c-1 -38 -5 -70 -9 -70 -4 0 -13 20 -19 45 -10 40
-9 49 6 70 10 13 19 25 21 25 2 0 2 -31 1 -70z m87 43 c24 -33 17 -60 -18 -67
-17 -3 -33 -4 -36 -1 -9 8 18 85 30 85 6 0 17 -8 24 -17z m452 -6 c2 -12 -3
-17 -17 -17 -15 0 -21 6 -21 21 0 25 33 22 38 -4z m-205 -105 c9 -10 19 -32
23 -48 5 -25 1 -32 -19 -43 -39 -21 -70 -11 -80 26 -7 24 -5 36 9 57 22 30 45
33 67 8z m-359 -45 c14 -30 35 -79 46 -110 22 -59 55 -107 73 -107 22 0 57
-44 57 -72 0 -21 -5 -28 -20 -28 -18 0 -50 44 -50 69 0 6 -11 22 -26 36 -24
24 -110 194 -114 225 -7 55 4 50 34 -13z m124 34 c15 -12 22 -30 22 -53 0 -30
-5 -37 -31 -48 -22 -10 -36 -10 -48 -3 -25 15 -25 65 -1 96 25 32 30 33 58 8z
m456 3 c3 -9 6 -27 6 -40 0 -20 -5 -24 -30 -24 -28 0 -30 3 -30 36 0 21 4 33
10 29 6 -3 10 -15 10 -26 0 -10 4 -19 8 -19 17 0 21 12 12 36 -5 13 -6 24 -1
24 5 0 12 -7 15 -16z m-119 -29 c0 -43 -29 -40 -33 3 -3 28 0 33 15 30 13 -2
18 -12 18 -33z m225 9 c0 -16 -16 -19 -25 -4 -8 13 4 32 16 25 5 -4 9 -13 9
-21z m-660 6 c0 -5 -2 -10 -4 -10 -3 0 -8 5 -11 10 -3 6 -1 10 4 10 6 0 11 -4
11 -10z m224 -12 c11 -42 7 -48 -29 -48 -33 0 -35 2 -35 35 0 32 3 35 29 35
21 0 30 -6 35 -22z m220 -94 c24 -23 21 -81 -4 -89 -44 -14 -68 48 -33 87 20
22 18 22 37 2z m-212 -11 c20 -18 24 -64 8 -94 -15 -26 -75 -26 -90 0 -18 34
-12 68 16 90 32 25 42 26 66 4z m545 -19 c-9 -9 -28 6 -21 18 4 6 10 6 17 -1
6 -6 8 -13 4 -17z m-439 -16 c-2 -28 -7 -33 -28 -33 -16 0 -26 6 -28 18 -6 30
6 47 33 47 24 0 26 -3 23 -32z m220 -4 c-10 -10 -28 6 -28 24 0 15 1 15 17 -1
9 -9 14 -19 11 -23z m-442 11 c4 -8 3 -27 0 -41 -5 -19 -12 -25 -29 -22 -22 3
-34 35 -23 64 7 19 45 18 52 -1z m244 -118 c22 -39 4 -81 -36 -85 -39 -4 -56
17 -52 60 2 23 10 36 28 45 32 16 41 13 60 -20z m-122 -29 c3 -36 2 -38 -27
-38 -30 0 -31 2 -31 41 0 38 1 40 28 37 23 -3 27 -8 30 -40z m439 27 c8 -22
-6 -33 -17 -15 -13 20 -12 30 0 30 6 0 13 -7 17 -15z m-227 -22 c-1 -27 -1
-27 -15 -9 -19 25 -19 36 0 36 10 0 15 -10 15 -27z m-298 -95 c-7 -7 -12 -8
-12 -2 0 14 12 26 19 19 2 -3 -1 -11 -7 -17z m100 -12 c29 -40 27 -68 -6 -90
-23 -14 -27 -14 -55 2 -17 9 -35 30 -41 46 -11 31 -4 49 9 27 7 -11 13 -8 26
13 21 32 45 33 67 2z m318 -12 c0 -17 -22 -14 -28 4 -2 7 3 12 12 12 9 0 16
-7 16 -16z m-210 -14 c0 -14 -7 -20 -24 -20 -23 0 -41 22 -29 34 4 3 17 6 30
6 16 0 23 -6 23 -20z m-117 -132 c31 -91 37 -114 24 -94 -7 10 -21 30 -33 45
-38 47 -48 72 -33 82 23 14 27 11 42 -33z m455 21 c-2 -6 -8 -10 -13 -10 -5 0
-11 4 -13 10 -2 6 4 11 13 11 9 0 15 -5 13 -11z m-228 -23 c0 -3 -4 -8 -10
-11 -5 -3 -10 -1 -10 4 0 6 5 11 10 11 6 0 10 -2 10 -4z m-6733 -108 c-2 -18
-4 -6 -4 27 0 33 2 48 4 33 2 -15 2 -42 0 -60z m6852 -15 c0 -25 -1 -26 -9 -8
-12 27 -12 35 0 35 6 0 10 -12 9 -27z m-221 -29 c-3 -14 -6 -14 -28 4 l-25 21
25 9 c26 10 35 0 28 -34z m-26 -56 c42 -63 87 -161 64 -138 -14 13 -107 190
-101 190 1 0 18 -24 37 -52z m138 -48 c0 -5 -4 -10 -10 -10 -5 0 -10 5 -10 10
0 6 5 10 10 10 6 0 10 -4 10 -10z m3170 -61 c0 -16 -2 -29 -4 -29 -2 0 -11 -3
-20 -6 -13 -5 -16 1 -16 33 0 22 3 43 7 46 12 13 33 -15 33 -44z m-3199 -94
c7 -13 3 -12 -10 5 -11 14 -21 30 -21 35 0 11 14 -7 31 -40z m159 30 c0 -8 -4
-15 -10 -15 -5 0 -10 7 -10 15 0 8 5 15 10 15 6 0 10 -7 10 -15z m-90 -35 c0
-5 -8 -10 -17 -10 -15 0 -16 2 -3 10 19 12 20 12 20 0z m4977 -32 c-3 -8 -6
-5 -6 6 -1 11 2 17 5 13 3 -3 4 -12 1 -19z m-9500 -60 c-3 -7 -5 -2 -5 12 0
14 2 19 5 13 2 -7 2 -19 0 -25z m9452 -77 c-42 -95 -47 -86 -6 11 18 41 33 72
35 68 2 -4 -11 -40 -29 -79z m-9462 22 c-3 -10 -5 -4 -5 12 0 17 2 24 5 18 2
-7 2 -21 0 -30z m438 -89 c17 -92 18 -127 6 -120 -4 3 -11 36 -14 73 -3 37 -9
84 -13 103 -4 19 -4 32 0 29 4 -4 14 -42 21 -85z m-454 -20 c-6 -50 -9 -58
-10 -29 -1 45 11 125 16 109 2 -5 -1 -41 -6 -80z m-2116 -95 l130 -5 -135 0
-134 1 -13 60 c-7 33 -12 74 -12 90 1 17 8 -8 17 -55 l17 -85 130 -6z m11537
45 l-20 -49 -2576 -3 c-1598 -1 -2576 2 -2576 7 0 10 206 20 218 11 4 -3 724
-4 1600 -2 l1592 3 1 27 c1 21 2 22 6 7 11 -45 19 -47 162 -41 75 3 458 5 851
5 l715 1 19 46 c10 25 20 43 23 41 2 -2 -5 -26 -15 -53z m-10922 -46 c0 -11
-32 -10 -50 2 -11 8 -7 10 18 8 17 -1 32 -6 32 -10z m1095 2 c64 -4 -135 -7
-476 -8 -323 0 -592 4 -600 9 -17 10 914 10 1076 -1z m1796 -1 c8 -5 -171 -8
-441 -7 -250 1 -412 5 -360 8 147 10 785 9 801 -1z m162 4 c-7 -2 -21 -2 -30
0 -10 3 -4 5 12 5 17 0 24 -2 18 -5z m74 1 c-3 -3 -12 -4 -19 -1 -8 3 -5 6 6
6 11 1 17 -2 13 -5z m2368 -4 c39 -4 -236 -7 -610 -6 -374 0 -628 3 -565 6
165 9 1092 9 1175 0z m-5942 -7 c-7 -2 -19 -2 -25 0 -7 3 -2 5 12 5 14 0 19
-2 13 -5z m264 1 c-3 -3 -12 -4 -19 -1 -8 3 -5 6 6 6 11 1 17 -2 13 -5z m60 0
c-3 -3 -12 -4 -19 -1 -8 3 -5 6 6 6 11 1 17 -2 13 -5z"/>
<path d="M9300 13859 c0 -5 5 -7 10 -4 6 3 10 8 10 11 0 2 -4 4 -10 4 -5 0
-10 -5 -10 -11z"/>
<path d="M9960 13684 c0 -14 3 -14 15 -4 8 7 15 14 15 16 0 2 -7 4 -15 4 -8 0
-15 -7 -15 -16z"/>
<path d="M10235 13430 c4 -6 11 -8 16 -5 14 9 11 15 -7 15 -8 0 -12 -5 -9 -10z"/>
<path d="M7947 12883 c-4 -3 -7 -13 -7 -22 1 -13 3 -13 11 2 11 19 8 33 -4 20z"/>
<path d="M7890 12810 c0 -5 5 -10 11 -10 5 0 7 5 4 10 -3 6 -8 10 -11 10 -2 0
-4 -4 -4 -10z"/>
<path d="M9690 11959 c-20 -5 -15 -7 22 -8 26 -1 68 -8 93 -17 26 -8 54 -14
63 -12 21 5 -78 39 -121 43 -18 1 -43 -1 -57 -6z"/>
<path d="M9360 11859 c0 -5 5 -7 10 -4 6 3 10 8 10 11 0 2 -4 4 -10 4 -5 0
-10 -5 -10 -11z"/>
<path d="M9100 11210 c-8 -5 -10 -10 -5 -10 6 0 17 5 25 10 8 5 11 10 5 10 -5
0 -17 -5 -25 -10z"/>
<path d="M7617 11003 c-8 -13 2 -43 14 -43 10 0 10 8 0 34 -5 12 -10 16 -14 9z"/>
<path d="M9336 10692 c-2 -4 -1 -14 5 -22 7 -13 9 -12 9 2 0 9 6 19 13 21 7 3
6 6 -5 6 -9 1 -19 -3 -22 -7z"/>
<path d="M7666 10502 c2 -2 -2 -14 -8 -26 -10 -20 -10 -20 8 -4 12 12 15 21 8
27 -6 5 -9 6 -8 3z"/>
<path d="M7717 10303 c-5 -10 -8 -68 -4 -62 11 12 25 69 17 69 -5 0 -11 -3
-13 -7z"/>
<path d="M7628 10215 c-8 -8 3 -55 13 -55 4 0 11 5 14 10 3 6 1 10 -5 10 -7 0
-9 8 -5 20 6 18 -4 27 -17 15z"/>
<path d="M7957 10204 c-4 -4 -7 -17 -7 -28 1 -19 1 -20 11 -3 11 19 8 43 -4
31z"/>
<path d="M7918 10125 c-10 -13 -18 -34 -18 -47 0 -22 0 -22 14 -3 12 18 30 75
24 75 -2 0 -11 -11 -20 -25z"/>
<path d="M7860 10060 c0 -5 5 -10 11 -10 5 0 7 5 4 10 -3 6 -8 10 -11 10 -2 0
-4 -4 -4 -10z"/>
<path d="M8000 10063 c0 -5 4 -14 9 -22 7 -11 11 -9 20 8 10 18 9 21 -9 21
-11 0 -20 -3 -20 -7z"/>
<path d="M8207 10050 c-7 -28 -6 -32 9 -22 6 4 8 16 4 26 -6 18 -7 18 -13 -4z"/>
<path d="M8318 9943 c6 -2 10 -9 6 -14 -3 -5 0 -9 5 -9 6 0 11 7 11 15 0 8 -8
15 -17 14 -11 0 -13 -3 -5 -6z"/>
<path d="M8880 9873 c13 -67 42 -113 70 -113 6 0 9 -4 6 -8 -6 -10 60 -72 77
-72 6 0 21 -10 35 -22 22 -21 33 -23 135 -22 132 1 158 5 193 33 15 12 32 21
38 21 28 0 86 22 81 30 -4 6 5 15 19 21 50 23 34 79 -17 60 -17 -7 -27 -7 -29
0 -2 5 -60 11 -133 14 -72 2 -150 9 -175 15 -25 6 -53 12 -62 13 -10 1 -18 5
-18 9 0 4 -8 7 -17 7 -26 1 -54 6 -83 16 -14 5 -38 9 -55 10 -44 3 -47 4 -40
15 3 6 -2 10 -13 10 -17 0 -18 -5 -12 -37z"/>
<path d="M8310 9820 c0 -5 5 -10 11 -10 5 0 7 5 4 10 -3 6 -8 10 -11 10 -2 0
-4 -4 -4 -10z"/>
<path d="M8367 9750 c3 -12 -1 -22 -11 -26 -24 -9 -19 -29 8 -32 24 -2 47 29
27 36 -6 2 -11 10 -11 17 0 8 -4 16 -9 19 -5 4 -7 -3 -4 -14z"/>
<path d="M8330 9565 c-11 -14 -11 -18 0 -25 17 -11 40 -2 40 17 0 8 -4 12 -9
9 -5 -4 -11 -1 -13 5 -2 7 -9 5 -18 -6z"/>
<path d="M8590 9519 c0 -5 5 -7 10 -4 6 3 10 8 10 11 0 2 -4 4 -10 4 -5 0 -10
-5 -10 -11z"/>
<path d="M8495 9490 c-3 -5 -1 -10 4 -10 6 0 11 5 11 10 0 6 -2 10 -4 10 -3 0
-8 -4 -11 -10z"/>
<path d="M8350 9470 c0 -5 5 -10 11 -10 5 0 7 5 4 10 -3 6 -8 10 -11 10 -2 0
-4 -4 -4 -10z"/>
<path d="M8701 9388 c-14 -23 -14 -23 8 -4 22 20 25 26 13 26 -4 0 -13 -10
-21 -22z"/>
<path d="M9450 9361 c0 -5 7 -11 14 -14 10 -4 13 -1 9 9 -6 15 -23 19 -23 5z"/>
<path d="M8916 9341 c-4 -7 -5 -15 -2 -18 9 -9 19 4 14 18 -4 11 -6 11 -12 0z"/>
<path d="M9381 9294 c0 -11 3 -14 6 -6 3 7 2 16 -1 19 -3 4 -6 -2 -5 -13z"/>
<path d="M9170 8299 c-6 -11 -64 -94 -128 -183 -155 -217 -306 -383 -456 -503
-39 -31 -85 -70 -103 -87 -37 -37 -51 -48 -78 -64 -16 -9 3 -11 96 -12 81 0
121 -4 134 -14 20 -14 18 -16 -50 -55 -17 -10 -16 -10 10 -5 51 11 72 31 132
124 32 50 82 125 112 168 90 129 171 270 254 442 83 174 99 210 92 210 -2 0
-9 -9 -15 -21z"/>
<path d="M7485 8160 c3 -5 8 -10 11 -10 2 0 4 5 4 10 0 6 -5 10 -11 10 -5 0
-7 -4 -4 -10z"/>
<path d="M8112 7337 c-27 -28 -28 -37 -4 -37 9 0 30 -7 46 -15 15 -8 36 -15
45 -15 9 0 -3 9 -27 21 -35 18 -41 25 -38 45 6 30 5 30 -22 1z"/>
<path d="M7986 6205 c4 -8 7 -15 9 -15 1 0 8 7 15 15 10 13 9 15 -8 15 -15 0
-20 -5 -16 -15z"/>
<path d="M8064 6100 c-6 -22 -7 -37 -3 -34 5 3 9 1 9 -4 0 -5 7 -9 15 -9 18 0
20 13 4 23 -6 3 -9 19 -7 35 7 43 -6 35 -18 -11z"/>
<path d="M9690 4859 c0 -5 5 -7 11 -3 7 4 9 0 5 -14 -4 -11 -2 -23 3 -26 16
-10 23 12 11 34 -11 21 -30 27 -30 9z"/>
<path d="M9667 4823 c-3 -5 -1 -17 4 -28 6 -17 7 -16 6 8 -1 28 -3 32 -10 20z"/>
<path d="M9060 4740 c0 -20 5 -30 15 -30 17 0 18 4 9 38 -9 32 -24 27 -24 -8z"/>
<path d="M9181 4504 c0 -11 3 -14 6 -6 3 7 2 16 -1 19 -3 4 -6 -2 -5 -13z"/>
<path d="M8565 2550 c-3 -5 -1 -10 4 -10 6 0 11 5 11 10 0 6 -2 10 -4 10 -3 0
-8 -4 -11 -10z"/>
<path d="M8716 2493 c-4 -9 -2 -21 4 -27 7 -7 10 -2 10 17 0 31 -5 34 -14 10z"/>
<path d="M8722 2238 c7 -19 38 -22 38 -4 0 10 -9 16 -21 16 -12 0 -19 -5 -17
-12z"/>
</g>
</svg>
